<?xml version="1.0" encoding="utf-8"?>
<!-- Generator: Adobe Illustrator 23.0.0, SVG Export Plug-In . SVG Version: 6.00 Build 0)  -->
<svg version="1.1" id="Layer_1" xmlns="http://www.w3.org/2000/svg" xmlns:xlink="http://www.w3.org/1999/xlink" x="0px" y="0px"
	 viewBox="0 0 512 512" style="enable-background:new 0 0 512 512;" xml:space="preserve">
<style type="text/css">
	.st0{fill:#1FB6C8;}
</style>
<path class="st0" d="M256,512C114.8,512,0,397.2,0,256S114.8,0,256,0s256,114.8,256,256S397.2,512,256,512z M256,32
	C132.5,32,32,132.5,32,256s100.5,224,224,224s224-100.5,224-224S379.5,32,256,32z"/>
<g>
	<path class="st0" d="M255.4,126.2c3.8,0,6.8-3.1,6.8-6.8V88.9c0-3.8-3.1-6.8-6.8-6.8s-6.8,3.1-6.8,6.8v30.5
		C248.6,123.2,251.6,126.2,255.4,126.2L255.4,126.2z"/>
	<path class="st0" d="M422.7,317.1l-12.1-12.1c-4.3-4.3-10-6.7-16.1-6.7c-3.9,0-7.7,1-11,2.8l-22.8-22.8l1.1-1.1
		c9.2-9.3,9.2-24.3,0-33.5c-3.3-3.3-7.4-5.5-11.9-6.4c0.6-2.1,0.9-4.4,0.9-6.7c0-6.4-2.5-12.3-6.9-16.8c-3.3-3.3-7.4-5.5-11.9-6.4
		c0.6-2.1,0.9-4.4,0.9-6.7c0-6.4-2.5-12.3-6.9-16.8c-3.4-3.4-7.5-5.5-11.9-6.4c2.3-8.1,0.3-17.1-6-23.5c-5.3-5.2-12.4-7.5-19.3-6.8
		l-45.1-8.5c-6.9-1.3-15.5-2.2-20.9,2.8c-0.3,0.3-0.7,0.7-1,1.1c-8.4-3.1-18.2-1.2-25,5.5c-4.5,4.5-6.9,10.4-6.9,16.8
		c0,2.3,0.3,4.5,0.9,6.7c-4.5,0.9-8.6,3.1-11.9,6.4c-4.5,4.5-6.9,10.4-7,16.8c0,2.3,0.3,4.5,0.9,6.7c-4.5,0.9-8.6,3.1-11.9,6.4
		c-4.5,4.5-6.9,10.4-6.9,16.8c0,4.9,1.5,9.5,4.1,13.4c-3.4,1.2-6.5,3.1-9.1,5.7c-9.2,9.2-9.3,24.3,0,33.6l1.1,1.1l-22.8,22.7
		c-8.5-4-18.9-2.5-25.9,4.5l-12.1,12.1c-4.3,4.3-6.7,10-6.7,16.1c0,6.1,2.4,11.8,6.7,16.1l15.1,15.1c2.7,2.7,7,2.7,9.7,0
		c2.7-2.7,2.7-7,0-9.7L99,340.4c-1.7-1.7-2.7-4-2.7-6.5c0-2.5,0.9-4.7,2.7-6.5l12.1-12.1c3-3,7.6-3.5,11.2-1.4
		c0.2,0.4,0.5,0.7,0.9,1.1c0.6,0.6,1.3,1,2,1.4l69.4,69.3c0.3,0.7,0.8,1.4,1.4,2c0.6,0.6,1.2,1,1.9,1.3c1.5,1.7,2.3,3.8,2.3,6
		c0,2.5-0.9,4.7-2.7,6.5l-12.1,12.1c-3.6,3.6-9.4,3.6-12.9,0l-15.1-15.1c-2.7-2.7-7-2.7-9.7,0c-2.7,2.7-2.7,7,0,9.7l15.1,15.1
		c4.4,4.4,10.3,6.6,16.1,6.6c5.8,0,11.7-2.2,16.1-6.6l12.1-12.1c4.3-4.3,6.7-10,6.7-16.1c0-4.4-1.2-8.5-3.5-12.1l25.6-25.6
		c0,0,0.1-0.1,0.1-0.1c2.9-3,11.1-2.5,19-1.9c5.6,0.4,11.9,0.8,18,0.1l28.1,28c-1.8,3.3-2.8,7.1-2.8,11c0,6.1,2.4,11.8,6.7,16.1
		l12.1,12.1c4.3,4.3,10,6.7,16.1,6.7c6.1,0,11.8-2.4,16.1-6.7l73.4-73.3c4.3-4.3,6.7-10,6.7-16.1C429.4,327.2,427,321.5,422.7,317.1
		L422.7,317.1z M241.1,152.3l29.7,5.6L253,175.7c-2.7-1.3-6.5-3.8-10.6-7.7c-5.7-5.4-9.7-11.7-10.1-15.6c0,0,0,0,0,0c0,0,0,0,0,0
		c0-0.3,0-0.5,0-0.7C233.1,151.5,235.5,151.3,241.1,152.3L241.1,152.3z M206.4,157.9c3.5-3.5,8.9-3.9,12.8-1.2
		c2.2,9.3,10.2,17.7,13.7,21.2c2.6,2.5,11.1,10.1,19.7,12.2c1.2,1.7,1.8,3.6,1.8,5.7c0,2.7-1,5.2-2.9,7.1c-1.9,1.9-4.4,2.9-7.1,2.9
		c-2.7,0-5.2-1-7.1-2.9l0,0l0,0l-30.9-30.8c-1.9-1.9-2.9-4.4-2.9-7.1C203.4,162.3,204.5,159.8,206.4,157.9L206.4,157.9z
		 M188.5,187.8c1.9-1.9,4.4-2.9,7.1-2.9c2.7,0,5.2,1,7.1,2.9l24.9,24.8c3.9,3.9,3.9,10.3,0,14.2c-1.9,1.9-4.4,2.9-7.1,2.9
		c-2.7,0-5.2-1-7.1-2.9l0,0l-18.9-18.8c0,0-0.1-0.1-0.1-0.1l-5.9-5.9c-1.9-1.9-2.9-4.4-2.9-7.1C185.5,192.2,186.6,189.7,188.5,187.8
		L188.5,187.8z M170.6,217.6c1.9-1.9,4.4-2.9,7.1-2.9c2.7,0,5.2,1,7.1,2.9l18.9,18.9c1.9,1.9,2.9,4.4,2.9,7.1c0,2.7-1,5.2-2.9,7.1
		c-1.9,1.9-4.4,2.9-7.1,2.9c-2.7,0-5.2-1-7.1-2.9l-6.9-6.8c0,0,0,0,0,0l-12-12c-1.9-1.9-2.9-4.4-2.9-7.1
		C167.6,222,168.7,219.5,170.6,217.6L170.6,217.6z M158.6,253.5c1.9-1.9,4.4-2.9,7.1-2.9c2.7,0,5.2,1,7.1,2.9l6.9,6.9
		c1.9,1.9,2.9,4.4,2.9,7.1s-1,5.2-2.9,7.1c-1.9,1.9-4.4,2.9-7.1,2.9c-2.7,0-5.2-1-7.1-2.9l-0.9-0.9c0,0,0,0,0,0c0,0,0,0,0,0
		l-5.9-5.9C154.7,263.8,154.7,257.4,158.6,253.5L158.6,253.5z M298.1,331.3c-2.7-2.7-7-2.7-9.7,0l-6.1,6.1
		c-5.8,5.8-16.3,5.1-26.4,4.4c-11-0.8-22.4-1.6-29.8,6L201,372.9l-63-62.9l22.3-22.3c3.7,2.3,7.9,3.5,12.4,3.5
		c6.4,0,12.3-2.5,16.8-6.9c4.5-4.5,7-10.4,7-16.8c0-0.1,0-0.1,0-0.2c0.1,0,0.1,0,0.2,0c6.4,0,12.3-2.5,16.8-6.9
		c4.5-4.5,7-10.4,7-16.8c0-0.1,0-0.1,0-0.2c0.1,0,0.1,0,0.2,0c6.3,0,12.3-2.5,16.8-6.9c4.7-4.7,7-10.8,6.9-17c0.1,0,0.1,0,0.2,0
		c6.4,0,12.3-2.5,16.8-6.9c4.5-4.5,6.9-10.4,6.9-16.8c0-4.4-1.2-8.7-3.5-12.4l19.6-19.5c1.5-1.5,3.3-2.4,5.1-2.7
		c0.2,0,0.4-0.1,0.6-0.1c3-0.4,6.2,0.5,8.5,2.8c3.9,3.9,3.9,10.3,0,14.2l-6,5.9c0,0,0,0-0.1,0.1l-6.9,6.8c-2.7,2.7-2.7,7,0,9.7
		c2.7,2.7,7,2.7,9.7,0l6-6c0,0,0,0,0,0l0.9-0.9c3.9-3.9,10.3-3.9,14.2,0c1.9,1.9,2.9,4.4,2.9,7.1c0,2.7-1,5.2-2.9,7.1l-6,6
		c0,0,0,0,0,0l-6.9,6.8c-2.7,2.7-2.7,7,0,9.7c2.7,2.7,7,2.7,9.7,0l6.9-6.9c1.9-1.9,4.4-2.9,7.1-2.9c2.7,0,5.2,1,7.1,2.9
		c1.9,1.9,2.9,4.4,2.9,7.1c0,2.7-1,5.2-2.9,7.1l-11.9,11.9c-2.7,2.7-2.7,7,0,9.7c1.3,1.3,3.1,2,4.8,2c1.8,0,3.5-0.7,4.8-2l5.9-5.9
		c0,0,0.1-0.1,0.1-0.1c1.9-1.9,4.4-2.9,7.1-2.9c2.7,0,5.2,1,7.1,2.9c3.9,3.9,3.9,10.3,0,14.2l-5.9,5.9c0,0,0,0,0,0c0,0,0,0,0,0
		l-9.4,9.4c-2.7,2.7-2.7,7,0,9.7c1.3,1.3,3.1,2,4.8,2c1.7,0,3.5-0.7,4.8-2l4.6-4.6l22.1,22.1l-63,63l-22.6-22.6
		c1.6-1,3.1-2.2,4.5-3.6l6.1-6.1C300.8,338.3,300.8,334,298.1,331.3L298.1,331.3z M413,339.8L339.7,413c-1.7,1.7-4,2.7-6.5,2.7
		c-2.5,0-4.8-0.9-6.5-2.7l-12.1-12.1c-1.7-1.7-2.7-4-2.7-6.4c0-2.4,0.9-4.7,2.7-6.4l73.4-73.3c1.7-1.7,4-2.7,6.5-2.7
		c2.5,0,4.8,0.9,6.5,2.7l12.1,12.1c1.7,1.7,2.7,4,2.7,6.5C415.7,335.7,414.7,338,413,339.8z"/>
	<path class="st0" d="M164.5,120.5c1.3,1.3,3.1,2,4.8,2c1.8,0,3.5-0.7,4.8-2c2.7-2.7,2.7-7,0-9.7l-24.9-24.9c-2.7-2.7-7-2.7-9.7,0
		c-2.7,2.7-2.7,7,0,9.7L164.5,120.5z"/>
	<path class="st0" d="M341.4,122.5c1.7,0,3.5-0.7,4.8-2l24.9-24.9c2.7-2.7,2.7-7,0-9.7c-2.7-2.7-7-2.7-9.7,0l-24.9,24.9
		c-2.7,2.7-2.7,7,0,9.7C337.9,121.8,339.7,122.5,341.4,122.5z"/>
	<path class="st0" d="M124.7,376.4c-2.6,2.7-2.6,7,0.1,9.7l0,0c1.3,1.3,3.1,2,4.8,2c1.8,0,3.5-0.7,4.9-2.1c2.6-2.7,2.6-7-0.1-9.7
		C131.7,373.7,127.4,373.7,124.7,376.4z"/>
	<path class="st0" d="M314.9,321.4c1,0,2.1-0.2,3.1-0.7c3.4-1.7,4.7-5.8,3-9.2c-1.7-3.4-5.8-4.7-9.2-3l0,0c-3.4,1.7-4.7,5.8-3,9.2
		C309.9,320,312.3,321.4,314.9,321.4L314.9,321.4z"/>
</g>
</svg>
