<?xml version="1.0" encoding="utf-8"?>
<!-- Generator: Adobe Illustrator 23.0.0, SVG Export Plug-In . SVG Version: 6.00 Build 0)  -->
<svg version="1.1" id="Layer_1" xmlns="http://www.w3.org/2000/svg" xmlns:xlink="http://www.w3.org/1999/xlink" x="0px" y="0px"
	 viewBox="0 0 512 512" style="enable-background:new 0 0 512 512;" xml:space="preserve">
<style type="text/css">
	.st0{fill:#1FB6C8;}
</style>
<path class="st0" d="M256,512C114.8,512,0,397.2,0,256S114.8,0,256,0s256,114.8,256,256S397.2,512,256,512z M256,32
	C132.5,32,32,132.5,32,256s100.5,224,224,224s224-100.5,224-224S379.5,32,256,32z"/>
<g>
	<g>
		<g>
			<g>
				<rect x="222.9" y="335.7" class="st0" width="66.1" height="11"/>
			</g>
		</g>
		<g>
			<g>
				<rect x="300.1" y="335.7" class="st0" width="33.1" height="11"/>
			</g>
		</g>
		<g>
			<g>
				<rect x="344.2" y="335.7" class="st0" width="11" height="11"/>
			</g>
		</g>
	</g>
	<g>
		<g>
			<path class="st0" d="M206.4,322h-33.1c-3,0-5.5,2.5-5.5,5.5V355c0,2,1.1,3.9,2.9,4.9c0.8,0.4,1.7,0.7,2.6,0.7
				c1.1,0,2.1-0.3,3.1-0.9l13.5-9l13.5,9c1.7,1.1,3.9,1.2,5.7,0.3c1.8-1,2.9-2.8,2.9-4.9v-27.5C211.9,324.4,209.5,322,206.4,322z
				 M200.9,344.7l-8-5.3c-0.9-0.6-2-0.9-3.1-0.9s-2.1,0.3-3.1,0.9l-8,5.3V333h22V344.7z"/>
		</g>
	</g>
	<g>
		<g>
			<path class="st0" d="M415.8,277.9h-71.6v-51.7l44.1-12.2v47.3h11V211l18-5c2.4-0.7,4-2.8,4-5.3s-1.7-4.7-4-5.3l-150.7-41.6
				l8.3-8.3c1.2,0.1,2.8,0.1,4.7,0.1c11.5,0,33.6-2.1,48.1-16.5c19.7-19.7,16.3-54,16.1-55.5c-0.3-2.6-2.3-4.6-4.9-4.9
				c-1.4-0.2-35.7-3.6-55.5,16.1c-16.8,16.8-16.8,44.2-16.3,52.8l-14,14l-13.8,3.8c-0.6-12.1-3.8-30.5-16.3-43
				c-19.7-19.7-54-16.3-55.5-16.1c-2.6,0.3-4.6,2.3-4.9,4.9c-0.2,1.4-3.6,35.7,16.1,55.5c5,5,10.9,8.4,16.9,10.8l-101,27.9
				c-2.4,0.7-4,2.8-4,5.3c0,2.5,1.7,4.7,4,5.3l73.1,20.2v51.7h-16.5c-33.4,0-60.6,27.2-60.6,60.6s27.2,60.6,60.6,60.6h264.5
				c3,0,5.5-2.5,5.5-5.5v-22c0-3-2.5-5.5-5.5-5.5h-3.1c-14.1-15.6-14.1-39.5,0-55.1h3.1c3,0,5.5-2.5,5.5-5.5v-22
				C421.3,280.4,418.8,277.9,415.8,277.9z M291.3,92.8c12.2-12.2,32.7-13.3,41.8-13.2c0.2,9.1-1,29.6-13.2,41.8
				c-9.3,9.3-23.5,12.1-33.8,12.9l28.9-28.9l-7.8-7.8l-28.9,28.9C279,116.4,281.9,102.2,291.3,92.8z M250.5,163.9v12.5l-9.8-9.8
				L250.5,163.9z M186.6,149c-12.2-12.2-13.4-32.7-13.2-41.9c9.1-0.1,29.6,1,41.8,13.2c9.3,9.4,12.2,23.5,13,33.8l-28.9-28.9
				l-7.8,7.8l28,28l-2.1,0.6C207.5,160.5,195.1,157.5,186.6,149z M116.9,200.8l101.3-27.9c3.2,0.3,6.2,0.4,8.6,0.4
				c1.9,0,3.5-0.1,4.7-0.1l18.9,18.9v8.7h-11v11h33.1v-11h-11v-36.8l133.5,36.8L256,239.1L116.9,200.8z M333.1,229.3v48.6H178.9
				v-48.6l75.7,20.9c1,0.3,2,0.3,2.9,0L333.1,229.3z M410.3,299.9H151.3c-21.3,0-38.6,17.3-38.6,38.6s17.3,38.6,38.6,38.6h258.9v11
				H151.3c-27.3,0-49.6-22.2-49.6-49.6s22.2-49.6,49.6-49.6h22h165.3h71.6V299.9z M399,366H151.3c-15.2,0-27.5-12.4-27.5-27.5
				s12.4-27.5,27.5-27.5H399C388.5,327.8,388.5,349.2,399,366z"/>
		</g>
	</g>
</g>
</svg>
