<?xml version="1.0" encoding="utf-8"?>
<!-- Generator: Adobe Illustrator 23.0.0, SVG Export Plug-In . SVG Version: 6.00 Build 0)  -->
<svg version="1.1" id="Layer_1" xmlns="http://www.w3.org/2000/svg" xmlns:xlink="http://www.w3.org/1999/xlink" x="0px" y="0px"
	 viewBox="0 0 512 512" style="enable-background:new 0 0 512 512;" xml:space="preserve">
<style type="text/css">
	.st0{fill:#1FB6C8;}
</style>
<path class="st0" d="M256,512C114.8,512,0,397.2,0,256S114.8,0,256,0s256,114.8,256,256S397.2,512,256,512z M256,32
	C132.5,32,32,132.5,32,256s100.5,224,224,224s224-100.5,224-224S379.5,32,256,32z"/>
<g>
	<path class="st0" d="M167.8,441.1c-3.3,0-5.9-2.6-5.9-5.9c0-22.7,18.5-41.1,41.1-41.1c3.3,0,5.9,2.6,5.9,5.9s-2.6,5.9-5.9,5.9
		c-16.2,0-29.4,13.2-29.4,29.4C173.7,438.5,171.1,441.1,167.8,441.1z"/>
	<path class="st0" d="M226.6,405.9l-23.5,0c-3.2,0-5.9-2.6-5.9-5.9c0-3.3,2.6-5.9,5.9-5.9h0l23.5,0c3.2,0,5.9,2.6,5.9,5.9
		C232.5,403.2,229.9,405.9,226.6,405.9z"/>
	<path class="st0" d="M344.2,441.1c-3.3,0-5.9-2.6-5.9-5.9c0-16.2-13.2-29.4-29.4-29.4c-3.3,0-5.9-2.6-5.9-5.9s2.6-5.9,5.9-5.9
		c22.7,0,41.1,18.5,41.1,41.1C350,438.5,347.4,441.1,344.2,441.1z"/>
	<path class="st0" d="M285.4,405.9c-3.2,0-5.9-2.6-5.9-5.9c0-3.2,2.6-5.9,5.9-5.9l23.5,0h0c3.2,0,5.9,2.6,5.9,5.9
		c0,3.2-2.6,5.9-5.9,5.9L285.4,405.9z"/>
	<path class="st0" d="M226.6,405.9c-3.3,0-5.9-2.6-5.9-5.9v-18.8c0-3.2,2.6-5.9,5.9-5.9s5.9,2.6,5.9,5.9V400
		C232.5,403.2,229.9,405.9,226.6,405.9z"/>
	<path class="st0" d="M285.4,405.9c-3.3,0-5.9-2.6-5.9-5.9v-18.8c0-3.2,2.6-5.9,5.9-5.9s5.9,2.6,5.9,5.9V400
		C291.3,403.2,288.6,405.9,285.4,405.9z"/>
	<path class="st0" d="M256,394.1c-38.9,0-70.5-31.6-70.5-70.5c0-3.3,2.6-5.9,5.9-5.9s5.9,2.6,5.9,5.9c0,32.4,26.4,58.8,58.8,58.8
		s58.8-26.4,58.8-58.8c0-3.3,2.6-5.9,5.9-5.9s5.9,2.6,5.9,5.9C326.5,362.5,294.9,394.1,256,394.1z"/>
	<path class="st0" d="M320.6,294.2c-3.3,0-5.9-2.6-5.9-5.9c0-32.4-26.4-58.8-58.8-58.8s-58.8,26.4-58.8,58.8c0,3.3-2.6,5.9-5.9,5.9
		s-5.9-2.6-5.9-5.9c0-38.9,31.6-70.5,70.5-70.5s70.5,31.6,70.5,70.5C326.5,291.6,323.9,294.2,320.6,294.2z"/>
	<path class="st0" d="M191.4,329.5c-3.3,0-5.9-2.6-5.9-5.9v-35.3c0-3.3,2.6-5.9,5.9-5.9s5.9,2.6,5.9,5.9v35.3
		C197.2,326.8,194.6,329.5,191.4,329.5z"/>
	<path class="st0" d="M320.6,329.5c-3.3,0-5.9-2.6-5.9-5.9v-35.3c0-3.3,2.6-5.9,5.9-5.9s5.9,2.6,5.9,5.9v35.3
		C326.5,326.8,323.9,329.5,320.6,329.5z"/>
	<path class="st0" d="M320.6,306c-1.5,0-3-0.6-4.2-1.7l-17.6-17.6c-2.3-2.3-2.3-6,0-8.3s6-2.3,8.3,0l17.6,17.6c2.3,2.3,2.3,6,0,8.3
		C323.7,305.4,322.2,306,320.6,306z"/>
	<path class="st0" d="M256,300.1c-26.4,0-48.9-11.9-49.8-12.5c-2.9-1.5-3.9-5.1-2.4-8c1.5-2.9,5.1-3.9,8-2.4
		c0.2,0.1,20.9,11.1,44.2,11.1c23.4,0,44-10.9,44.2-11.1c2.8-1.5,6.4-0.5,8,2.4c1.5,2.9,0.5,6.4-2.4,8
		C304.9,288.1,282.4,300.1,256,300.1z"/>
	<path class="st0" d="M191.4,306c-1.5,0-3-0.6-4.2-1.7c-2.3-2.3-2.3-6,0-8.3l17.6-17.6c2.3-2.3,6-2.3,8.3,0c2.3,2.3,2.3,6,0,8.3
		l-17.6,17.6C194.4,305.4,192.9,306,191.4,306z"/>
	<path class="st0" d="M238.4,417.6c-1.5,0-3-0.6-4.2-1.7l-11.8-11.7c-2.3-2.3-2.3-6,0-8.3c2.3-2.3,6-2.3,8.3,0l11.8,11.7
		c2.3,2.3,2.3,6,0,8.3C241.4,417,239.9,417.6,238.4,417.6z"/>
	<path class="st0" d="M238.4,417.6c-2.5,0-4.8-1.6-5.6-4c-1-3.1,0.6-6.4,3.7-7.4l17.6-5.9c3.1-1,6.4,0.6,7.4,3.7
		c1,3.1-0.6,6.4-3.7,7.4l-17.6,5.9C239.6,417.5,239,417.6,238.4,417.6z"/>
	<path class="st0" d="M273.6,417.6c-1.5,0-3-0.6-4.2-1.7c-2.3-2.3-2.3-6,0-8.3l11.8-11.7c2.3-2.3,6-2.3,8.3,0s2.3,6,0,8.3
		l-11.8,11.7C276.6,417,275.1,417.6,273.6,417.6z"/>
	<path class="st0" d="M273.6,417.6c-0.6,0-1.2-0.1-1.9-0.3l-17.6-5.9c-3.1-1-4.7-4.4-3.7-7.4c1-3.1,4.3-4.7,7.4-3.7l17.6,5.9
		c3.1,1,4.7,4.4,3.7,7.4C278.4,416.1,276.1,417.6,273.6,417.6z"/>
	<path class="st0" d="M256,200.2c-35.6,0-64.6-29-64.6-64.6s29-64.6,64.6-64.6s64.6,29,64.6,64.6S291.6,200.2,256,200.2z M256,82.6
		c-29.2,0-52.9,23.7-52.9,52.9s23.7,52.9,52.9,52.9s52.9-23.7,52.9-52.9S285.2,82.6,256,82.6z"/>
	<path class="st0" d="M132.6,270.7c-35.6,0-64.6-29-64.6-64.6s29-64.6,64.6-64.6c17.3,0,33.5,6.7,45.7,18.9
		c12.2,12.2,18.9,28.4,18.9,45.7c0,17.3-6.7,33.5-18.9,45.7C166.1,264,149.9,270.7,132.6,270.7z M132.6,153.2
		c-29.2,0-52.9,23.7-52.9,52.9s23.7,52.9,52.9,52.9c14.1,0,27.4-5.5,37.4-15.5c10-10,15.5-23.3,15.5-37.4s-5.5-27.4-15.5-37.4
		C160,158.7,146.7,153.2,132.6,153.2z"/>
	<path class="st0" d="M379.4,270.7c-35.6,0-64.6-29-64.6-64.7c0-35.6,29-64.7,64.6-64.7c35.6,0,64.6,29,64.7,64.7
		C444.1,241.7,415.1,270.7,379.4,270.7z M379.4,153.2c-29.2,0-52.9,23.7-52.9,52.9c0,29.2,23.7,52.9,52.9,52.9
		c29.2,0,52.9-23.7,52.9-52.9C432.3,176.9,408.6,153.2,379.4,153.2z"/>
	<path class="st0" d="M162,241.3h-58.8c-3.3,0-5.9-2.6-5.9-5.9v-41.1c0-3.3,2.6-5.9,5.9-5.9H162c3.3,0,5.9,2.6,5.9,5.9v41.1
		C167.8,238.7,165.2,241.3,162,241.3z M109.1,229.6h47v-29.4h-47V229.6z"/>
	<path class="st0" d="M162,200.2h-58.8c-3.3,0-5.9-2.6-5.9-5.9v-17.6c0-3.3,2.6-5.9,5.9-5.9H162c3.3,0,5.9,2.6,5.9,5.9v17.6
		C167.8,197.5,165.2,200.2,162,200.2z M109.1,188.4h47v-5.9h-47V188.4z"/>
	<path class="st0" d="M238.4,170.8c-9.7,0-17.6-7.9-17.6-17.6s7.9-17.6,17.6-17.6c3.3,0,5.9,2.6,5.9,5.9s-2.6,5.9-5.9,5.9
		c-3.2,0-5.9,2.6-5.9,5.9s2.6,5.9,5.9,5.9c3.3,0,5.9,2.6,5.9,5.9S241.6,170.8,238.4,170.8z"/>
	<path class="st0" d="M279.5,170.8h-41.1c-3.3,0-5.9-2.6-5.9-5.9s2.6-5.9,5.9-5.9h41.1c3.3,0,5.9,2.6,5.9,5.9
		S282.8,170.8,279.5,170.8z"/>
	<path class="st0" d="M279.5,147.3h-41.1c-3.3,0-5.9-2.6-5.9-5.9s2.6-5.9,5.9-5.9h41.1c3.3,0,5.9,2.6,5.9,5.9
		S282.8,147.3,279.5,147.3z"/>
	<path class="st0" d="M273.6,170.8c-3.3,0-5.9-2.6-5.9-5.9v-23.5c0-3.3,2.6-5.9,5.9-5.9s5.9,2.6,5.9,5.9v23.5
		C279.5,168.2,276.9,170.8,273.6,170.8z"/>
	<path class="st0" d="M226.6,123.8c-3.3,0-5.9-2.6-5.9-5.9c0-9.7,7.9-17.6,17.6-17.6c3.3,0,5.9,2.6,5.9,5.9s-2.6,5.9-5.9,5.9
		c-3.2,0-5.9,2.6-5.9,5.9C232.5,121.1,229.9,123.8,226.6,123.8z"/>
	<path class="st0" d="M279.5,112h-41.1c-3.3,0-5.9-2.6-5.9-5.9s2.6-5.9,5.9-5.9h41.1c3.3,0,5.9,2.6,5.9,5.9S282.8,112,279.5,112z"/>
	<path class="st0" d="M279.5,147.3c-3.3,0-5.9-2.6-5.9-5.9v-35.3c0-3.3,2.6-5.9,5.9-5.9s5.9,2.6,5.9,5.9v35.3
		C285.4,144.7,282.8,147.3,279.5,147.3z"/>
	<path class="st0" d="M226.6,159c-3.3,0-5.9-2.6-5.9-5.9v-35.3c0-3.3,2.6-5.9,5.9-5.9s5.9,2.6,5.9,5.9v35.3
		C232.5,156.4,229.9,159,226.6,159z"/>
	<path class="st0" d="M402.9,235.4h-47c-6.5,0-11.8-5.3-11.8-11.8v-29.4c0-6.5,5.3-11.8,11.8-11.8h47c6.5,0,11.8,5.3,11.8,11.8v29.4
		C414.7,230.2,409.4,235.4,402.9,235.4z M402.9,223.7v5.9V223.7z M355.9,194.3v29.4h47l0-29.4H355.9z"/>
	<path class="st0" d="M367.7,194.3c-3.3,0-5.9-2.6-5.9-5.9v-17.6c0-3.3,2.6-5.9,5.9-5.9s5.9,2.6,5.9,5.9v17.6
		C373.5,191.7,370.9,194.3,367.7,194.3z"/>
	<path class="st0" d="M391.2,176.7h-23.5c-3.3,0-5.9-2.6-5.9-5.9s2.6-5.9,5.9-5.9h23.5c3.3,0,5.9,2.6,5.9,5.9
		S394.4,176.7,391.2,176.7z"/>
	<path class="st0" d="M391.2,194.3c-3.3,0-5.9-2.6-5.9-5.9v-17.6c0-3.3,2.6-5.9,5.9-5.9s5.9,2.6,5.9,5.9v17.6
		C397,191.7,394.4,194.3,391.2,194.3z"/>
</g>
</svg>
