<?xml version="1.0" encoding="utf-8"?>
<!-- Generator: Adobe Illustrator 23.0.0, SVG Export Plug-In . SVG Version: 6.00 Build 0)  -->
<svg version="1.1" id="Layer_1" xmlns="http://www.w3.org/2000/svg" xmlns:xlink="http://www.w3.org/1999/xlink" x="0px" y="0px"
	 viewBox="0 0 512 512" style="enable-background:new 0 0 512 512;" xml:space="preserve">
<style type="text/css">
	.st0{fill:#1FB6C8;}
</style>
<path class="st0" d="M256,512C114.8,512,0,397.2,0,256S114.8,0,256,0s256,114.8,256,256S397.2,512,256,512z M256,32
	C132.5,32,32,132.5,32,256s100.5,224,224,224s224-100.5,224-224S379.5,32,256,32z"/>
<g id="XMLID_1641_">
	<g id="XMLID_1114_">
		<path id="XMLID_1143_" class="st0" d="M350.2,239.6c-3.6,2.1-4.8,6.7-2.7,10.3c11,18.7,16.8,40.1,16.8,61.8
			c0,67.3-54.8,122.1-122.1,122.1s-122.1-54.8-122.1-122.1S175,189.7,242.3,189.7c21.1,0,41.9,5.5,60.1,15.8
			c3.6,2.1,8.2,0.8,10.3-2.8c2.1-3.6,0.8-8.2-2.8-10.3c-20.5-11.6-43.8-17.7-67.5-17.7c-26.2,0-50.7,7.4-71.6,20.2l-8.2-30.8
			c-5.5-20.7,6.8-42,27.4-47.5c20.6-5.5,42,6.8,47.5,27.4c1.1,4,5.2,6.4,9.2,5.3l35.8-9.6c1.9-0.5,3.6-1.8,4.6-3.5
			c1-1.7,1.3-3.8,0.8-5.7c-6.3-23.4-21.3-43-42.3-55.2s-45.5-15.4-69-9.1c-48.4,13-77.2,62.9-64.3,111.3l15.7,58.7
			c-14.4,21.7-22.7,47.7-22.7,75.6c0,75.6,61.5,137.1,137.1,137.1s137.1-61.5,137.1-137.1c0-24.5-6.5-48.5-18.9-69.5
			C358.4,238.7,353.8,237.5,350.2,239.6L350.2,239.6z M126.7,173.6c-10.8-40.4,13.2-82,53.6-92.9c19.6-5.2,40-2.6,57.5,7.6
			c15.3,8.9,26.9,22.5,33,38.9l-21.4,5.7c-10.3-24.3-37.3-38-63.5-30.9c-28.7,7.7-45.8,37.3-38.1,65.9l9.7,36
			c-6.6,5.2-12.6,10.9-18.1,17.2L126.7,173.6z"/>
		<path id="XMLID_1147_" class="st0" d="M350.6,126.9c1.9,0,3.9-0.7,5.3-2.2l35.5-35.5c2.9-2.9,2.9-7.7,0-10.7
			c-2.9-2.9-7.7-2.9-10.7,0L345.3,114c-2.9,2.9-2.9,7.7,0,10.7C346.7,126.1,348.7,126.9,350.6,126.9L350.6,126.9z"/>
		<path id="XMLID_1152_" class="st0" d="M314.9,104.2c4.2,0,7.5-3.4,7.5-7.5v-26c0-4.2-3.4-7.5-7.5-7.5c-4.2,0-7.5,3.4-7.5,7.5v26
			C307.4,100.8,310.7,104.2,314.9,104.2z"/>
		<path id="XMLID_1153_" class="st0" d="M399.3,147.5h-26c-4.2,0-7.5,3.4-7.5,7.5c0,4.2,3.4,7.5,7.5,7.5h26c4.2,0,7.5-3.4,7.5-7.5
			C406.8,150.9,403.5,147.5,399.3,147.5z"/>
		<path id="XMLID_1184_" class="st0" d="M333.2,226.9c2,0,3.9-0.8,5.3-2.2c1.4-1.4,2.2-3.3,2.2-5.3c0-2-0.8-3.9-2.2-5.3
			c-1.4-1.4-3.3-2.2-5.3-2.2c-2,0-3.9,0.8-5.3,2.2c-1.4,1.4-2.2,3.3-2.2,5.3c0,2,0.8,3.9,2.2,5.3
			C329.3,226.1,331.2,226.9,333.2,226.9z"/>
	</g>
</g>
</svg>
