<?xml version="1.0" encoding="utf-8"?>
<!-- Generator: Adobe Illustrator 23.0.0, SVG Export Plug-In . SVG Version: 6.00 Build 0)  -->
<svg version="1.1" id="Layer_1" xmlns="http://www.w3.org/2000/svg" xmlns:xlink="http://www.w3.org/1999/xlink" x="0px" y="0px"
	 viewBox="0 0 512 512" style="enable-background:new 0 0 512 512;" xml:space="preserve">
<style type="text/css">
	.st0{fill:#1FB6C8;}
</style>
<path class="st0" d="M256,512C114.8,512,0,397.2,0,256S114.8,0,256,0s256,114.8,256,256S397.2,512,256,512z M256,32
	C132.5,32,32,132.5,32,256s100.5,224,224,224s224-100.5,224-224S379.5,32,256,32z"/>
<g>
	<path class="st0" d="M179,443.4c2.5,2.5,6.5,2.5,8.9,0l25.2-25.2c2.5-2.5,2.5-6.5,0-8.9l-1.8-1.8l18.9-18.9h79.4
		c1.7,0,3.3-0.7,4.5-1.8l82-82c2.5-2.5,2.5-6.5,0-8.9c-16.4-16.4-43-16.4-59.4,0l-23.4,23.4h-22.6v-18.9c0-10.5-8.5-19-19-19
		l-69.6-0.1c-1.7,0-3.3,0.7-4.5,1.9L160,321c-1.2,1.2-1.8,2.8-1.8,4.4v16.4l-6.3,6.3l-1.9-1.9c-2.5-2.5-6.5-2.5-8.9,0l-25.2,25.2
		c-2.5,2.5-2.5,6.5,0,8.9L179,443.4z M168.9,348.9c1.2-1.2,1.9-2.8,1.9-4.5v-16.3l33.9-34.2l67,0.1c3.5,0,6.4,2.9,6.4,6.4v18.9
		h-50.5v12.6h88.3c1.7,0,3.3-0.7,4.5-1.8l25.2-25.2c9.8-9.7,25-11.4,36.6-4L307,375.9h-79.4c-1.7,0-3.3,0.7-4.5,1.8l-20.8,20.7
		l-41.5-41.6L168.9,348.9z M145.6,359.6l54.2,54.1L183.5,430l-35.2-35.2l8.2-8.2l-8.9-8.9l-8.2,8.2l-10-10L145.6,359.6z"/>
	<path class="st0" d="M252.8,66.7h12.6v12.6h-12.6L252.8,66.7z"/>
	<path class="st0" d="M221.9,75.4l11.7-4.8l4.8,11.7L226.7,87L221.9,75.4z"/>
	<path class="st0" d="M196.6,95.2l8.9-8.9l8.9,8.9l-8.9,8.9L196.6,95.2z"/>
	<path class="st0" d="M180.9,123.2l4.8-11.7l11.7,4.8l-4.8,11.7L180.9,123.2z"/>
	<path class="st0" d="M320.9,116.3l11.7-4.8l4.8,11.7l-11.7,4.8L320.9,116.3z"/>
	<path class="st0" d="M303.7,95.2l8.9-8.9l8.9,8.9l-8.9,8.9L303.7,95.2z"/>
	<path class="st0" d="M279.9,82.2l4.8-11.7l11.7,4.8L291.5,87L279.9,82.2z"/>
	<path class="st0" d="M227.5,195.9v10.8c-9.8,3.4-15,14.1-11.6,23.8c0.8,2.4,2.2,4.7,3.9,6.5c-7,7.7-6.5,19.6,1.2,26.6
		c3.5,3.2,8.1,5,12.8,4.9h50.5c10.4,0,18.9-8.4,18.9-18.8c0-4.7-1.7-9.3-4.9-12.8c7-7.6,6.5-19.5-1.2-26.5c-1.9-1.7-4.1-3.1-6.5-3.9
		v-10.8c26.1-17.4,33.1-52.7,15.7-78.8s-52.7-33.1-78.8-15.7c-26.1,17.4-33.1,52.7-15.7,78.8C216,186.4,221.3,191.8,227.5,195.9
		L227.5,195.9z M284.3,256h-50.5c-3.5,0-6.3-2.8-6.3-6.3s2.8-6.3,6.3-6.3h50.5c3.5,0,6.3,2.8,6.3,6.3S287.8,256,284.3,256z
		 M284.3,230.8h-50.5c-3.5,0-6.3-2.8-6.3-6.3s2.8-6.3,6.3-6.3h50.5c3.5,0,6.3,2.8,6.3,6.3S287.8,230.8,284.3,230.8z M259.1,104.6
		c24.4,0,44.1,19.8,44.1,44.2c0,15.7-8.4,30.3-22,38.1c-1.9,1.1-3.2,3.2-3.2,5.5v13.1h-12.6v-22.6l20.3-20.2
		c7.7-7.7,7.7-20.1,0-27.8c0,0,0,0,0,0c-7.3-7-18.6-7.5-26.5-1.2c-7.9-6.3-19.2-5.8-26.5,1.2c-7.7,7.7-7.7,20.2,0,27.8l3.2,3.2
		l8.9-8.9l-3.2-3.2c-2.8-2.8-2.8-7.2,0-10c2.8-2.7,7.2-2.7,10,0l3.2,3.2c2.5,2.5,6.5,2.5,8.9,0l3.2-3.2c2.8-2.7,7.2-2.7,10,0
		c2.8,2.8,2.8,7.2,0,10c0,0,0,0,0,0l-22.1,22.1c-1.2,1.2-1.8,2.8-1.8,4.5v25.2h-12.6v-13.1c0-2.3-1.2-4.3-3.2-5.5
		c-21.1-12.2-28.3-39.3-16.1-60.4C228.9,113,243.4,104.6,259.1,104.6L259.1,104.6z"/>
</g>
</svg>
