<?xml version="1.0" encoding="utf-8"?>
<!-- Generator: Adobe Illustrator 23.0.0, SVG Export Plug-In . SVG Version: 6.00 Build 0)  -->
<svg version="1.1" id="Capa_1" xmlns="http://www.w3.org/2000/svg" xmlns:xlink="http://www.w3.org/1999/xlink" x="0px" y="0px"
	 viewBox="0 0 511.3 512" style="enable-background:new 0 0 511.3 512;" xml:space="preserve">
<style type="text/css">
	.st0{fill:#1FB6C8;}
</style>
<g>
	<g>
		<path class="st0" d="M388.8,338.6c-16.7-16.5-37.6-16.5-54.2,0c-12.7,12.6-25.3,25.1-37.8,37.9c-3.4,3.5-6.3,4.3-10.4,1.9
			c-8.2-4.5-16.9-8.1-24.8-13c-36.7-23.1-67.5-52.8-94.8-86.2c-13.5-16.6-25.6-34.4-34-54.4c-1.7-4-1.4-6.7,1.9-10
			c12.7-12.2,25-24.8,37.5-37.4c17.4-17.5,17.4-37.9-0.1-55.5c-9.9-10-19.8-19.8-29.7-29.8c-10.2-10.2-20.3-20.5-30.7-30.7
			C95,45.2,74.2,45.2,57.6,61.6c-12.8,12.6-25,25.4-38,37.8C7.5,110.8,1.5,124.7,0.2,141c-2,26.5,4.5,51.5,13.6,75.9
			c18.7,50.5,47.3,95.3,81.9,136.4c46.7,55.6,102.5,99.5,167.8,131.3c29.4,14.3,59.8,25.2,92.9,27c22.8,1.3,42.6-4.5,58.5-22.3
			c10.9-12.1,23.1-23.2,34.6-34.8c17-17.2,17.1-38.1,0.2-55.2C429.5,379.1,409.1,358.9,388.8,338.6z"/>
		<path class="st0" d="M368.5,253.8l39.3-6.7c-6.2-36.1-23.2-68.8-49.1-94.8c-27.4-27.4-62-44.6-100.1-49.9l-5.5,39.5
			c29.5,4.2,56.3,17.5,77.5,38.6C350.6,200.6,363.7,225.9,368.5,253.8z"/>
		<path class="st0" d="M429.9,83C384.5,37.7,327.1,9,263.8,0.2l-5.5,39.5c54.7,7.7,104.3,32.5,143.5,71.5
			c37.2,37.2,61.5,84.1,70.4,135.7l39.3-6.7C501.1,180.4,472.9,126.1,429.9,83z"/>
	</g>
</g>
</svg>
