<?xml version="1.0" encoding="utf-8"?>
<!-- Generator: Adobe Illustrator 23.0.0, SVG Export Plug-In . SVG Version: 6.00 Build 0)  -->
<svg version="1.1" id="Capa_1" xmlns="http://www.w3.org/2000/svg" xmlns:xlink="http://www.w3.org/1999/xlink" x="0px" y="0px"
	 viewBox="0 0 512 512" style="enable-background:new 0 0 512 512;" xml:space="preserve">
<style type="text/css">
	.st0{fill:#A3A3A3;}
</style>
<path class="st0" d="M256,0C114.6,0,0,114.6,0,256s114.6,256,256,256s256-114.6,256-256S397.4,0,256,0z M256,472
	c-119.3,0-216-96.7-216-216S136.7,40,256,40s216,96.7,216,216S375.3,472,256,472z"/>
<g>
	<path class="st0" d="M255.9,391.9c-13.2,0-26.3,0.2-39.5,0c-12.7-0.2-25.4-0.3-37.8-3.2c-30.2-7.3-48.7-26.2-55.6-56.5
		c-2.3-9.8-2.8-19.9-2.8-29.9c-0.2-30.8-0.2-61.6,0-92.4c0.1-12,0.8-24,4.2-35.6c8.3-28,27.1-44.7,55.4-51.2
		c10.1-2.3,20.5-2.8,30.8-2.8c30.3-0.2,60.5-0.2,90.8,0c11.8,0.1,23.7,0.7,35.2,3.9c28.9,8.2,46.1,27.2,52.5,56.3
		c2.6,12,2.8,24.3,2.8,36.6c0.2,26,0.2,51.9,0,77.9c-0.1,12.8-0.2,25.6-3.2,38.2c-7.3,30.5-26.4,49-56.9,55.9
		c-11.9,2.7-24.1,2.7-36.2,2.9C282.3,392,269.1,391.9,255.9,391.9z M143.8,256c0.1,0,0.3,0,0.4,0c0,10-0.1,19.9,0,29.9
		c0.2,13.5-0.2,27,2.5,40.4c3.9,19.5,15.2,32.5,34.6,37.9c8.6,2.4,17.3,3,26.1,3c32.3,0.1,64.7,0.2,97,0c7.2,0,14.4-0.7,21.5-2
		c19.9-3.7,33-15.3,38.4-35.1c2.4-8.8,2.9-17.8,2.9-26.8c0.1-31.6,0.1-63.3,0-94.9c0-8.2-0.5-16.5-2.4-24.5
		c-3.5-15.2-11.8-26.7-26.2-33.3c-8.2-3.7-16.9-5.3-25.8-5.5c-15.2-0.5-30.3-0.8-45.5-0.9c-20,0-40,0-60,0.5
		c-7.9,0.2-15.9,0.9-23.7,2.5c-17,3.6-28.9,13.7-34.8,30.3c-2.5,7-3.6,14.2-3.8,21.6C144.5,218.1,144.2,237,143.8,256z"/>
	<path class="st0" d="M255.9,186.1c39,0.2,70.1,31.4,69.9,70.2c-0.2,38.7-31.7,69.7-70.5,69.5c-38.6-0.2-69.5-31.8-69.3-70.7
		C186.3,217.1,217.8,186,255.9,186.1z M210.4,255.9c-0.1,25,20.2,45.4,45.4,45.5c25.2,0.1,45.6-20.1,45.6-45.4
		c0.1-25.1-20.2-45.4-45.3-45.6C231.1,210.3,210.5,230.7,210.4,255.9z"/>
	<path class="st0" d="M328.8,199.7c-8.9,0.2-16.3-6.9-16.6-15.9c-0.3-8.8,7-16.5,15.9-16.7c9.1-0.2,16.6,6.9,16.8,15.9
		C345.1,192,337.9,199.4,328.8,199.7z"/>
</g>
</svg>
