<?xml version="1.0" encoding="iso-8859-1"?>
<!-- Generator: Adobe Illustrator 18.0.0, SVG Export Plug-In . SVG Version: 6.00 Build 0)  -->
<!DOCTYPE svg PUBLIC "-//W3C//DTD SVG 1.1//EN" "http://www.w3.org/Graphics/SVG/1.1/DTD/svg11.dtd">
<svg xmlns="http://www.w3.org/2000/svg" xmlns:xlink="http://www.w3.org/1999/xlink" version="1.1" id="Capa_1" x="0px" y="0px" viewBox="0 0 297 297" style="enable-background:new 0 0 297 297;" xml:space="preserve" width="512px" height="512px">
<g>
	<path d="M291.96,140.853c-9.89-42.463-36.824-63.596-67.573-56.466c-39.706,9.207-26.511,76.81-100.461,78.96   c-4.672,0.136-6.676-5.888-2.816-8.524c15.804-10.795,37.654-32.225,23.509-62.352c-19.404-41.329-60.112-45.67-111.15-14.621   c-5.6,3.407-7.211,10.816-3.517,16.231l4.621,6.776c3.242,4.754,9.516,6.386,14.642,3.771c16.113-8.219,49.857-22.384,61.995-4.201   c10.064,15.075-0.905,34.452-31.474,42.605c-5.283,1.409-8.776,6.437-8.362,11.889l1.79,23.55   c0.398,5.244,4.324,9.513,9.506,10.411c15.766,2.733,46.278,12.661,35.903,48.293c-12.414,42.636-86.215,13.952-113.122-34.073   c-1.508-2.691-5.614-1.18-5.005,1.844C7.148,238.239,28.004,297,91.711,297c89.142,0,59.419-106.069,59.419-106.069   s45.26-11.052,70.001-51.571c14.586-23.888,47.34-9.899,48.024,29.911c0.889,51.788-44.569,73.279-66.708,55.568   c-3.798-3.038-6.813-7.174-9.076-11.083c-1.516-2.618-5.532-1.471-5.406,1.553c0.812,19.526,6.848,54.035,39.24,55.582   C286.54,273.725,306.768,204.431,291.96,140.853z" fill="#FFFFFF"/>
	<path d="M178.384,41.933c2.453,2.437,6.439,2.352,8.786-0.188l14.664-15.865c2.163-2.34,2.163-5.949,0-8.289l-14.447-15.63   c-2.428-2.626-6.583-2.613-8.994,0.029l-15.179,16.635c-2.205,2.417-2.113,6.142,0.208,8.447L178.384,41.933z" fill="#FFFFFF"/>
	<path d="M257.277,55.564c2.588-2.094,3.003-5.878,0.951-8.499l-14.267-18.218c-2.181-2.785-6.26-3.125-8.895-0.765   c-35.506,31.803-64.874,25.715-84.173,13.709c-5.639-3.508-11.988,3.309-8.166,8.742   C183.453,108.433,240.852,68.855,257.277,55.564z" fill="#FFFFFF"/>
</g>
<g>
</g>
<g>
</g>
<g>
</g>
<g>
</g>
<g>
</g>
<g>
</g>
<g>
</g>
<g>
</g>
<g>
</g>
<g>
</g>
<g>
</g>
<g>
</g>
<g>
</g>
<g>
</g>
<g>
</g>
</svg>
