<?xml version="1.0" encoding="utf-8"?>
<!-- Generator: Adobe Illustrator 23.0.0, SVG Export Plug-In . SVG Version: 6.00 Build 0)  -->
<svg version="1.1" id="Capa_1" xmlns="http://www.w3.org/2000/svg" xmlns:xlink="http://www.w3.org/1999/xlink" x="0px" y="0px"
	 viewBox="0 0 512 512" style="enable-background:new 0 0 512 512;" xml:space="preserve">
<style type="text/css">
	.st0{fill:#A3A3A3;}
</style>
<g>
	<path class="st0" d="M360.6,6.8H151.4c-20.2,0-36.6,16.4-36.6,36.6v425.3c0,20.2,16.4,36.6,36.6,36.6h209.3
		c20.2,0,36.6-16.4,36.6-36.6V43.4C397.2,23.2,380.8,6.8,360.6,6.8z M131.4,73.2h249.2v315.7H131.4V73.2z M151.4,23.4h209.3
		c11,0,20,9,20,20v13.3H131.4V43.4C131.4,32.3,140.3,23.4,151.4,23.4z M360.6,488.6H151.4c-11,0-20-9-20-20v-63.1h249.2v63.1
		C380.6,479.7,371.7,488.6,360.6,488.6z"/>
	<path class="st0" d="M256,413.9c-18.3,0-33.2,14.9-33.2,33.2c0,18.3,14.9,33.2,33.2,33.2s33.2-14.9,33.2-33.2
		C289.2,428.8,274.3,413.9,256,413.9z M256,463.7c-9.2,0-16.6-7.5-16.6-16.6c0-9.2,7.5-16.6,16.6-16.6s16.6,7.5,16.6,16.6
		C272.6,456.2,265.2,463.7,256,463.7z"/>
	<path class="st0" d="M222.8,48.3H256c4.6,0,8.3-3.7,8.3-8.3s-3.7-8.3-8.3-8.3h-33.2c-4.6,0-8.3,3.7-8.3,8.3S218.2,48.3,222.8,48.3z
		"/>
	<path class="st0" d="M280.9,48.3h8.3c4.6,0,8.3-3.7,8.3-8.3s-3.7-8.3-8.3-8.3h-8.3c-4.6,0-8.3,3.7-8.3,8.3S276.3,48.3,280.9,48.3z"
		/>
	<path class="st0" d="M477.1,44.7c-3.2-3.2-8.5-3.2-11.7,0c-3.2,3.2-3.2,8.5,0,11.7c31,31,31,81.5,0,112.6c-3.2,3.2-3.2,8.5,0,11.7
		c1.6,1.6,3.7,2.4,5.9,2.4c2.1,0,4.3-0.8,5.9-2.4C514.6,143.3,514.6,82.2,477.1,44.7z"/>
	<path class="st0" d="M442.1,63.6c-3.2-3.2-8.5-3.2-11.7,0c-3.2,3.2-3.2,8.5,0,11.7c10.3,10.3,15.9,24,15.9,38.5
		c0,14.6-5.7,28.3-15.9,38.5c-3.2,3.2-3.2,8.5,0,11.7c1.6,1.6,3.7,2.4,5.9,2.4c2.1,0,4.3-0.8,5.9-2.4c13.4-13.4,20.8-31.3,20.8-50.3
		S455.5,77,442.1,63.6z"/>
	<path class="st0" d="M46.7,56.5c3.2-3.2,3.2-8.5,0-11.7c-3.2-3.2-8.5-3.2-11.7,0c-37.5,37.5-37.5,98.6,0,136.1
		c1.6,1.6,3.7,2.4,5.9,2.4s4.3-0.8,5.9-2.4c3.2-3.2,3.2-8.5,0-11.7C15.6,138,15.6,87.5,46.7,56.5z"/>
	<path class="st0" d="M81.6,61.3c-3.2-3.2-8.5-3.2-11.7,0c-13.4,13.4-20.8,31.3-20.8,50.3s7.4,36.9,20.8,50.3
		c1.6,1.6,3.7,2.4,5.9,2.4s4.3-0.8,5.9-2.4c3.2-3.2,3.2-8.5,0-11.7c-10.3-10.3-15.9-24-15.9-38.5s5.6-28.3,15.9-38.5
		C84.9,69.8,84.9,64.6,81.6,61.3z"/>
</g>
</svg>
