<?xml version="1.0" encoding="utf-8"?>
<!-- Generator: Adobe Illustrator 23.0.0, SVG Export Plug-In . SVG Version: 6.00 Build 0)  -->
<svg version="1.1" id="Layer_1" xmlns="http://www.w3.org/2000/svg" xmlns:xlink="http://www.w3.org/1999/xlink" x="0px" y="0px"
	 viewBox="0 0 400 153.1" style="enable-background:new 0 0 400 153.1;" xml:space="preserve">
<style type="text/css">
	.st0{fill-rule:evenodd;clip-rule:evenodd;fill:#1FB6C8;}
	.st1{fill:#1FB6C8;}
</style>
<g>
	<g>
		<path class="st0" d="M46.7,106.6c0.2-1.9-7.1-7.8-10-8.5c0.3,3.3,2.9,6.7,6.3,8c-1,0.5-4,1-5.7,1.7c-1.8,0.8-3.2,1.9-4.7,2.5
			c1.5,1.4,6.8,0.6,8.5,0.1C43.8,109.9,45.6,108.6,46.7,106.6"/>
		<path class="st0" d="M63.9,106.2c1.7-0.7,3.1-1.6,4.1-3.1c0.9-1.3,1.9-3,2.1-5c-1.7,0.5-4.5,2.4-5.8,3.4c-1.5,1.2-3.1,2.8-4.1,4.9
			c0.5,2.1,3.2,3.5,5.5,4.2c2,0.6,4.5,0.7,6.7,0.5c1-0.1,1.3-0.1,1.8-0.6c-1.4-0.6-2.9-1.8-4.8-2.6
			C66.7,106.7,64.5,106.4,63.9,106.2"/>
		<path class="st0" d="M38.3,105.5c0.5-1.5-2.5-5-3.2-5.7c-0.9-1.1-3.3-3.4-4.7-4.1c-0.6,3.9,2.5,7.5,4.7,8.8
			c-4.8,0-6.8,0.8-10.6,2.3c1.5,1.4,5.3,1.7,7.7,1.5C34.1,108.2,37.8,107.1,38.3,105.5"/>
		<path class="st0" d="M71.9,104.6c2.1-1.5,5.2-4.8,4.7-8.9c-2.3,1.3-8.8,7.9-7.8,9.9c1.5,3.2,11.2,3.5,13.9,1.2
			C79.2,105.4,76,104.6,71.9,104.6"/>
		<path class="st0" d="M79,101.6c0.5-0.7,0.9-0.8,1.5-1.7c1.3-1.8,2.3-5.7,1.2-7.5c-2.1,2.7-5.4,5.8-5.8,10.8c1,0.5,1.6,1,3.1,1.3
			c3.5,0.7,7.8-0.6,10.4-2.6C86.6,100.4,82.1,101.2,79,101.6"/>
		<path class="st0" d="M25.3,97.7c0.9,2.5,1.8,2.7,2.6,3.8c-3.1-0.5-7.7-1.1-10.5,0.3c1.3,1.1,4.1,2.2,6.2,2.6
			c3.9,0.7,4.8-0.1,7.4-1.3c-0.3-4.9-3.7-8.3-5.8-10.8C24.3,93.7,24.7,96.2,25.3,97.7"/>
		<path class="st0" d="M20.3,87.9c-0.8,1.5-1,3.5-0.7,5.4c0.4,2.1,1.2,2.8,1.8,4c-3.4-1.3-5.7-2.2-10.1-2c1.3,2.4,8.8,6.4,12.5,3.7
			C24,95.3,22.1,90.2,20.3,87.9"/>
		<path class="st0" d="M85.5,97.3c1.5-2.5,3.1-5.9,1.1-9.4c-1.8,2.6-3.7,7.1-3.4,11c1.8,1.4,5.2,0.9,7.3,0.1c2-0.8,2.6-1.4,4.1-2.5
			c0.7-0.5,0.7-0.5,1.1-1.2C90.5,95.2,89.4,96.1,85.5,97.3"/>
		<path class="st0" d="M6.8,87.9c1,2.8,5.8,6.2,9.2,6.3c1.7,0,1.8-0.3,2-1.9c0.3-2.6-0.3-7.5-1.5-9.5c-2.3,2.5-1.8,6.1-0.6,9.1
			C13.2,90.1,11.2,88.3,6.8,87.9"/>
		<path class="st0" d="M91.3,91.5c-0.3,0.4,0.3,0.2-0.5,0.5c-0.2-1.1-0.1-0.2,0.2-0.5c1.3-3,1.2-6.3-0.7-8.7c-0.8,1-1.3,4.1-1.5,5.3
			c-0.2,1.2-0.3,3.5,0,4.8c0.9,3.5,8.7-0.2,11.2-5C96.8,88.1,93.2,90,91.3,91.5"/>
		<path class="st0" d="M4.1,79.7c0.7,3.5,4.7,8,8.7,7.9c1.3-1.5,2-8.5,0.9-10.2c-0.3-0.2,0.3-0.5-0.6,0.3l-1.6,2.4
			c-0.6,1.4-0.5,2.7-0.4,4.4C9.7,82.5,6.4,80.4,4.1,79.7"/>
		<path class="st0" d="M94.1,87.6c4.5,0.1,7.6-4.2,8.8-7.9c-2.1,0.5-6.3,3.3-7.2,4.9c0.3-2.5-0.1-5.3-2.1-6.9
			C91.6,76,92.8,86.2,94.1,87.6"/>
		<path class="st0" d="M8.9,78.1c-1.2-1.7-2.3-5.4-6.1-7.1c0.3,4,3.1,9,6.9,9.2c1.7-2.8,3.1-5,3.3-9.5c-1.1,0.3-2.3,1.6-2.9,2.6
			C9.1,74.7,9,76,8.9,78.1"/>
		<path class="st0" d="M97.2,80.1c2.1-0.2,3.5-1.5,4.8-3.1c1.1-1.6,1.9-3.6,2.1-6c-1.4,0.5-2.8,2-3.6,3C99.2,75.4,99,76.6,98,78
			c-0.2-2.9-1-6.4-4.1-7.4C94.2,75.9,95.6,76.9,97.2,80.1"/>
		<path class="st0" d="M99.3,69.9l-0.2,0.8l-0.4-0.8c0-2.9-2.7-5.2-4.9-6.1c0.4,2.9,3.2,8.4,5.2,8.4c1.2,0,2.8-2.4,3.3-3.5
			c0.9-1.8,1.2-3.7,1.1-6C102.1,63.4,99.2,67.1,99.3,69.9"/>
		<path class="st0" d="M8.1,69.6v0.5l-0.2,0.6l-0.4-0.6v-0.4c-0.4-2.9-2.6-6.1-4.1-6.9c-0.3,4.1,1.7,8.4,4.5,9.5
			c2.2-0.8,4.7-5.1,5.2-8.5C10.6,64.7,8.9,66.6,8.1,69.6"/>
		<path class="st0" d="M13.9,57c-2.4,0.1-5.4,3.4-5.7,5.9c-1.1-5.9-0.3-4-3.2-8c-1,4.7,1.6,9.4,3.1,9.5c1.1,0,3.1-2.2,3.6-2.9
			C12.8,60,13.4,59.1,13.9,57"/>
		<path class="st0" d="M98.6,62.9c-0.5-2.5-3-5.7-5.7-5.9c1.1,3.2,3.1,6.4,5.9,7.3c2.6-1.3,3.5-5.5,3.1-9.5
			C99.6,56.5,99,59.5,98.6,62.9"/>
		<path class="st0" d="M97.2,55.2c-1.3-2.6-2.5-4.5-5.9-5.1c0.8,2.6,3.6,6.2,6.5,6.4c1.7-2.4,2.6-5.3,1.7-9.1
			C97.2,49.2,97.3,53.5,97.2,55.2"/>
		<path class="st0" d="M9.1,56.6c2.8-0.2,5.9-3.7,6.6-6.4c-3.2,0.6-4.7,2.4-5.9,5.1c-0.1-1.7,0.1-2.8-0.5-4.6l-1.9-3.2
			C6.3,51.5,7.2,54,9.1,56.6"/>
		<path class="st0" d="M49.1,104.9c2.1,2.2,1.8,0.8,1.5,4.7c3.8-1.6,1.2-1.4,5,0l-0.4-2.8l1.8-1.9l-2.6-0.4L53,102l-1.2,2.3
			L49.1,104.9z"/>
		<path class="st0" d="M11,50.3c2.9-1.1,3.5-4.7,3.3-8.5c-1.3,0.7-2.3,1.8-3,3.3C10.2,47.6,10.6,48.1,11,50.3"/>
		<path class="st0" d="M95.8,50.3c1.2-3.8-0.9-7.1-3.3-8.5C92.2,45.6,92.9,49.3,95.8,50.3"/>
		<polygon class="st0" points="7.6,70.1 8.1,70.1 8.1,69.6 7.6,69.7 		"/>
		<polygon class="st0" points="99.3,69.9 98.7,69.9 99.1,70.6 		"/>
		<path class="st0" d="M91.3,91.5H91c-0.3,0.3-0.4-0.6-0.2,0.5C91.6,91.7,91,91.9,91.3,91.5"/>
		<polygon class="st0" points="8.1,70.1 7.6,70.1 8,70.7 		"/>
		<path class="st0" d="M34.2,80.5c0-9.5-0.1-19-0.1-28.5c0-1.8,1.3-2.4,2.7-1.7c4.8,2.2,9.4,4.5,14.2,6.7c0.9,0.6,1.1,1.7,1.2,3
			c0,10.1,0,20.3,0,30.5c-5.4-2.6-10.8-5.2-16.2-7.8C34.7,82,34.2,81.3,34.2,80.5"/>
		<path class="st0" d="M58.2,62.1l11.5-5.4v1.8l-11.4,5.2L58.2,62.1z M58,68.6l11.5-5.4V65l-11.4,5.2L58,68.6z M58.4,74.7L70,69.4
			v1.8l-11.4,5.1L58.4,74.7z M58.4,80.9L70,75.5v1.8l-11.4,5.2L58.4,80.9z M72.9,80.5c0-9.5,0.1-19,0.1-28.5c0-1.8-1.3-2.4-2.7-1.7
			c-4.8,2.2-9.4,4.5-14.2,6.7c-0.9,0.6-1.1,1.7-1.2,3c0,10.1,0,20.3,0,30.5c5.4-2.6,10.8-5.2,16.2-7.8C72.4,82,72.8,81.3,72.9,80.5z
			"/>
		<path class="st0" d="M27.6,53.8c0,9.6-0.1,19.1-0.1,28.7c0.1,1,0.7,1.7,1.6,2.3c5.4,1.4,10.8,2.8,16.2,4.2c-1.7,2.4-3.4,5-5.1,7.4
			c3.8-1.9,7.7-3.8,11.5-5.8c-6.5-2.2-13.1-4.6-19.5-6.8c-1-0.5-1.7-1.2-1.7-2.4c0-9.7,0-19.5,0-29.2C29.3,52.1,27.8,52.5,27.6,53.8
			"/>
		<path class="st0" d="M79.3,53.8c0,9.6,0.1,19.1,0.1,28.7c-0.1,1-0.7,1.7-1.6,2.3c-5.4,1.4-10.8,2.8-16.2,4.2
			c1.7,2.4,3.4,5,5.1,7.4c-3.8-1.9-7.7-3.8-11.5-5.8c6.5-2.2,13.1-4.6,19.5-6.8c1-0.5,1.7-1.2,1.7-2.4c0-9.7,0-19.5,0-29.2
			C77.6,52.1,79.1,52.5,79.3,53.8"/>
	</g>
	<g>
		<g>
			<path class="st1" d="M118.9,58h-1c0.2-1.5,0.3-3.2,0.4-5.1c3.9,0.1,6.7,0.1,8.3,0.1c1.4,0,3.9,0,7.5-0.1c0.1,2,0.2,3.7,0.4,5.1
				h-1c-0.4-1.6-0.7-2.6-0.8-2.8c-0.1-0.3-0.3-0.5-0.5-0.6c-0.2-0.1-0.8-0.2-1.8-0.2h-2.9c-0.1,2.3-0.1,5.2-0.1,8.7
				c0,3.2,0,5.4,0.1,6.5c0,0.3,0.1,0.4,0.2,0.5c0.1,0.1,0.9,0.3,2.2,0.6c0.1,0,0.3,0.1,0.6,0.1v0.8c-1.7-0.1-3.3-0.1-4.7-0.1
				c-1.3,0-2.6,0-4,0.1v-0.8c0.3-0.1,0.5-0.1,0.7-0.2c1.2-0.2,1.9-0.4,2.1-0.5c0.1-0.1,0.1-0.2,0.2-0.3c0-0.1,0.1-1.1,0.1-2.9
				c0-2.8,0.1-4.9,0.1-6.2c0-2.4,0-4.4-0.1-6.2h-3.1l-0.6,0c-0.5,0-0.8,0.1-1,0.2c-0.2,0.1-0.5,0.5-0.7,0.9
				C119.4,55.9,119.2,56.7,118.9,58z"/>
			<path class="st1" d="M135.4,54.6v-0.8c1.2-0.3,2-0.6,2.6-0.8c0.6-0.2,1.1-0.5,1.7-0.8l0.3,0.2c-0.1,0.7-0.1,1.6-0.2,2.7
				c-0.1,2.3-0.1,4-0.1,4.9c0,0.3,0,0.7,0,1.3l1.7-1.7c0.3-0.3,0.7-0.5,1-0.6c0.5-0.2,1-0.3,1.6-0.3c1,0,1.8,0.3,2.4,0.8
				s0.9,1.2,1.1,2.1c0.1,0.5,0.1,3,0.1,7.3c0,0.7,0.1,1.1,0.2,1.3c0.1,0.2,0.6,0.3,1.5,0.5c0.1,0,0.2,0,0.4,0.1v0.7
				c-1.6-0.1-2.7-0.1-3.3-0.1c-0.9,0-1.9,0-3,0.1v-0.7l1.6-0.5c0.1,0,0.2-0.1,0.3-0.2s0.1-0.3,0.2-0.5c0-0.2,0.1-0.6,0.1-1.4
				l0.1-3.8c0-1.2-0.1-2.1-0.2-2.5c-0.2-0.4-0.4-0.8-0.8-1c-0.4-0.3-0.8-0.4-1.3-0.4c-0.7,0-1.3,0.2-1.9,0.6s-1,0.9-1.2,1.5
				c-0.2,0.6-0.3,1.6-0.3,3c0,2,0,3.3,0.1,3.8c0.1,0.4,0.1,0.6,0.3,0.7c0.1,0.1,0.6,0.3,1.4,0.5c0.1,0,0.2,0.1,0.4,0.1v0.7
				c-1.3-0.1-2.4-0.1-3.2-0.1c-0.9,0-1.9,0-3.2,0.1v-0.7c0.2-0.1,0.3-0.1,0.4-0.1c0.8-0.2,1.2-0.4,1.4-0.5c0.1-0.1,0.2-0.5,0.2-1.2
				c0.1-1.1,0.1-3.2,0.1-6.4c0-4.9-0.1-7.5-0.2-7.7s-0.4-0.4-0.8-0.4C136.4,54.5,136,54.5,135.4,54.6z"/>
			<path class="st1" d="M161.1,68.4l0.5,0.8l-2.6,1.9c-0.4,0.2-0.7,0.4-1.1,0.5c-0.6,0.2-1.1,0.3-1.7,0.3c-1.4,0-2.7-0.6-3.7-1.7
				c-1-1.2-1.5-2.7-1.5-4.7c0-2.1,0.6-3.8,1.8-5.1s2.7-1.9,4.5-1.9c1.4,0,2.4,0.4,3.2,1.1c0.7,0.8,1.1,1.9,1.1,3.4
				c-0.4,0.2-0.7,0.5-1,0.8c-0.6,0-1,0-1.2,0c-2.3,0-4.4,0-6.1,0.1c0,2,0.3,3.5,1,4.5c0.7,1,1.6,1.5,2.7,1.5c0.6,0,1.2-0.1,1.8-0.3
				C159.4,69.4,160.2,69,161.1,68.4z M159.2,62.6c-0.1-0.9-0.2-1.5-0.6-2c-0.5-0.7-1.2-1-2-1c-0.7,0-1.4,0.2-1.9,0.7
				c-0.6,0.5-1,1.3-1.3,2.5c0.3,0,0.6,0,0.7,0C155.6,62.8,157.3,62.8,159.2,62.6z"/>
			<path class="st1" d="M169.8,53.6v-0.8c2.2,0.1,3.6,0.1,4.4,0.1c0.5,0,2,0,4.5-0.1v0.8c-1.6,0.3-2.5,0.5-2.8,0.5
				c-0.2,0.1-0.3,0.2-0.4,0.3c-0.1,0.2-0.2,0.6-0.2,1.1s0,3.8,0,9.8c0,1.2,0,2.7,0,4.7h5.8c0.9,0,1.4-0.1,1.7-0.2s0.5-0.3,0.8-0.7
				s0.8-1.3,1.6-2.7h1.1l-1.1,2.9c-0.2,0.5-0.4,1.3-0.7,2.1c-3.6-0.1-6.8-0.1-9.5-0.1c-1.9,0-3.7,0-5.3,0.1v-0.8
				c1.3-0.2,2.1-0.4,2.4-0.5c0.2-0.1,0.4-0.2,0.5-0.4c0.1-0.2,0.1-0.6,0.1-1.4l0.1-8.1l0-5.2c0-0.4-0.1-0.7-0.2-0.8
				c-0.2-0.2-0.9-0.4-2-0.6C170.4,53.8,170.2,53.7,169.8,53.6z"/>
			<path class="st1" d="M189.6,62.6l-0.9-0.1c0.2-0.9,0.3-1.8,0.4-2.7c1.7-0.8,3.3-1.2,4.6-1.2c0.6,0,1.1,0.1,1.6,0.3
				c0.5,0.2,0.9,0.4,1.1,0.7c0.3,0.3,0.5,0.7,0.6,1.1c0.1,0.4,0.2,1.1,0.2,2l-0.1,5.4c0,0.7,0.1,1.2,0.3,1.5s0.4,0.3,0.6,0.3
				c0.3,0,0.8-0.2,1.5-0.7l0.4,0.5c-1.2,1.1-1.9,1.7-2,1.8c-0.2,0.1-0.6,0.2-0.9,0.2c-0.6,0-1-0.1-1.3-0.4c-0.3-0.3-0.5-0.8-0.6-1.4
				c-1.1,0.8-1.8,1.3-2.3,1.5c-0.5,0.2-1.1,0.3-1.7,0.3c-1,0-1.8-0.3-2.4-0.9c-0.6-0.6-0.9-1.4-0.9-2.3c0-0.6,0.1-1.1,0.3-1.5
				c0.2-0.5,0.5-0.9,0.9-1.2c0.3-0.3,0.8-0.6,1.6-0.9c1.7-0.8,3.2-1.5,4.5-2c0-1.2-0.3-2.1-0.6-2.5s-0.9-0.6-1.7-0.6
				c-0.7,0-1.3,0.2-1.8,0.7C190.4,61,190,61.7,189.6,62.6z M195.1,64.1c-2.3,1-3.7,1.8-4.2,2.2c-0.5,0.5-0.7,1-0.7,1.7
				s0.2,1.2,0.5,1.6s0.8,0.6,1.3,0.6c0.5,0,1-0.2,1.6-0.5c0.6-0.3,1-0.7,1.2-1.1c0.2-0.4,0.3-1.2,0.3-2.3V64.1z"/>
			<path class="st1" d="M200.5,61.1v-0.8c1.6-0.4,3-0.9,4.3-1.7l0.4,0.2c-0.1,0.7-0.2,1.5-0.2,2.3l1.7-1.7c0.3-0.2,0.6-0.4,1-0.6
				c0.5-0.2,1.1-0.3,1.6-0.3c1.3,0,2.2,0.4,2.8,1.3c0.4,0.6,0.6,1.5,0.6,2.9l0,3.2c0,2.1,0,3.4,0.1,3.8c0,0.3,0.1,0.4,0.3,0.6
				s0.5,0.2,1.3,0.4c0.1,0,0.3,0.1,0.6,0.1v0.7c-1-0.1-2-0.1-2.8-0.1c-0.7,0-1.9,0-3.6,0.1v-0.7c1-0.3,1.6-0.5,1.7-0.6
				s0.2-0.3,0.2-0.5c0.1-0.9,0.1-2.2,0.1-4c0-1.9,0-3.1-0.1-3.5c-0.1-0.6-0.4-1-0.8-1.3c-0.4-0.3-0.9-0.5-1.4-0.5
				c-0.6,0-1.2,0.2-1.7,0.5s-1,0.8-1.2,1.4c-0.3,0.6-0.4,1.4-0.4,2.5c0,3.2,0.1,4.9,0.2,5.1c0.1,0.3,0.6,0.5,1.5,0.7
				c0.1,0,0.3,0.1,0.5,0.1v0.7c-1.2-0.1-2.2-0.1-3-0.1c-0.8,0-1.9,0-3.5,0.1v-0.7c1-0.2,1.6-0.4,1.8-0.5c0.1-0.1,0.2-0.3,0.2-0.6
				c0.1-0.8,0.1-2,0.1-3.4c0-3,0-4.6-0.1-4.9c-0.1-0.4-0.4-0.6-0.8-0.6c-0.2,0-0.5,0-0.9,0.1C200.9,61,200.7,61,200.5,61.1z"/>
			<path class="st1" d="M228.1,59l0.1,0.2c-0.2,0.4-0.4,0.8-0.6,1.3c-0.7-0.1-1.3-0.1-2-0.1c0.6,0.9,0.8,1.8,0.8,2.6
				c0,1.3-0.5,2.3-1.4,3.2c-0.9,0.9-2.2,1.3-3.9,1.3c-0.4,0-0.9,0-1.4-0.1c-0.7,0.6-1,1.1-1,1.4c0,0.2,0.1,0.4,0.3,0.5
				c0.4,0.2,1.3,0.3,2.9,0.3l2.3,0c1.4,0,2.3,0.2,2.8,0.7s0.8,1.1,0.8,2c0,1.3-0.5,2.3-1.6,3.1c-1.6,1.2-3.6,1.8-6,1.8
				c-1.7,0-3-0.3-3.8-0.9c-0.8-0.6-1.2-1.3-1.2-2c0-0.4,0.1-0.7,0.2-0.9c0.1-0.1,0.3-0.3,0.6-0.5l2.1-1.5c-0.6-0.1-1.1-0.4-1.4-0.7
				c-0.3-0.3-0.5-0.7-0.5-1.1c0-0.3,0.1-0.5,0.3-0.6c0.5-0.4,1.2-1,2.1-1.9c-0.8-0.4-1.3-0.9-1.7-1.5c-0.4-0.6-0.6-1.3-0.6-2.2
				c0-1.3,0.5-2.4,1.4-3.3c0.9-0.9,2.2-1.3,3.9-1.3c0.4,0,0.8,0,1.2,0.1c0.4,0.1,0.9,0.2,1.3,0.3c0.5,0,0.8,0,1.1,0
				C226.7,59.1,227.6,59,228.1,59z M219.5,71.3c-0.7,0.6-1.2,1.1-1.4,1.5s-0.4,0.7-0.4,1.1c0,0.5,0.2,0.9,0.7,1.2
				c0.7,0.5,1.6,0.7,2.8,0.7c1.4,0,2.5-0.3,3.4-0.8c0.9-0.5,1.3-1.2,1.3-2.1c0-0.5-0.2-0.9-0.5-1.2c-0.4-0.3-1-0.4-2-0.4l-0.6,0
				H219.5z M218.9,62.7c0,1.3,0.3,2.2,0.8,2.8s1.1,0.9,1.9,0.9c0.7,0,1.3-0.3,1.7-0.8s0.7-1.3,0.7-2.4c0-1.3-0.2-2.2-0.7-2.8
				c-0.5-0.6-1.1-0.9-1.9-0.9c-0.7,0-1.3,0.3-1.7,0.8C219.2,60.9,218.9,61.7,218.9,62.7z"/>
			<path class="st1" d="M228.3,60.2v-0.7c1.6-0.1,3.1-0.3,4.4-0.6l0.3,0.3c-0.2,1.5-0.3,3.4-0.3,5.5c0,1.9,0.1,3.1,0.2,3.6
				c0.1,0.5,0.4,0.9,0.8,1.2s0.9,0.4,1.4,0.4c0.6,0,1.2-0.2,1.8-0.5c0.6-0.3,0.9-0.8,1.2-1.3s0.3-1.3,0.3-2.4c0-0.1,0-1.6-0.1-4.4
				c0-0.4-0.2-0.6-0.3-0.8c-0.2-0.1-0.7-0.2-1.5-0.3l-0.5,0v-0.7c1.9-0.1,3.3-0.3,4.4-0.6l0.3,0.3c-0.1,0.7-0.1,1.6-0.2,2.7
				c0,1.1-0.1,2.4-0.1,3.8c0,1.8,0,2.9,0.1,3.3s0.3,0.5,0.7,0.5c0.2,0,0.7-0.1,1.4-0.2V70c-0.9,0.2-1.7,0.5-2.3,0.7
				c-0.6,0.2-1.3,0.6-2,1l-0.4-0.3c0.1-0.7,0.2-1.3,0.2-2c-1,1-1.8,1.6-2.3,1.8c-0.5,0.3-1.1,0.4-1.7,0.4c-1.2,0-2.1-0.3-2.7-0.9
				c-0.6-0.6-0.9-1.5-0.9-2.7v-4.6c0-1.6-0.1-2.6-0.3-2.8c-0.2-0.2-0.7-0.4-1.6-0.5C228.7,60.2,228.5,60.2,228.3,60.2z"/>
			<path class="st1" d="M245.8,62.6l-0.9-0.1c0.2-0.9,0.3-1.8,0.4-2.7c1.7-0.8,3.3-1.2,4.6-1.2c0.6,0,1.1,0.1,1.6,0.3
				c0.5,0.2,0.9,0.4,1.1,0.7c0.3,0.3,0.5,0.7,0.6,1.1s0.2,1.1,0.2,2l-0.1,5.4c0,0.7,0.1,1.2,0.3,1.5s0.4,0.3,0.6,0.3
				c0.3,0,0.8-0.2,1.5-0.7l0.4,0.5c-1.2,1.1-1.9,1.7-2,1.8c-0.2,0.1-0.6,0.2-0.9,0.2c-0.6,0-1-0.1-1.3-0.4c-0.3-0.3-0.5-0.8-0.6-1.4
				c-1.1,0.8-1.8,1.3-2.3,1.5c-0.5,0.2-1.1,0.3-1.7,0.3c-1,0-1.8-0.3-2.4-0.9c-0.6-0.6-0.9-1.4-0.9-2.3c0-0.6,0.1-1.1,0.3-1.5
				c0.2-0.5,0.5-0.9,0.9-1.2c0.3-0.3,0.8-0.6,1.6-0.9c1.7-0.8,3.2-1.5,4.5-2c0-1.2-0.3-2.1-0.6-2.5s-0.9-0.6-1.7-0.6
				c-0.7,0-1.3,0.2-1.8,0.7C246.7,61,246.2,61.7,245.8,62.6z M251.4,64.1c-2.3,1-3.7,1.8-4.2,2.2c-0.5,0.5-0.7,1-0.7,1.7
				s0.2,1.2,0.5,1.6s0.8,0.6,1.3,0.6c0.5,0,1-0.2,1.6-0.5c0.6-0.3,1-0.7,1.2-1.1c0.2-0.4,0.3-1.2,0.3-2.3V64.1z"/>
			<path class="st1" d="M269.5,59l0.1,0.2c-0.2,0.4-0.4,0.8-0.6,1.3c-0.7-0.1-1.3-0.1-2-0.1c0.6,0.9,0.8,1.8,0.8,2.6
				c0,1.3-0.5,2.3-1.4,3.2c-0.9,0.9-2.2,1.3-3.9,1.3c-0.4,0-0.9,0-1.4-0.1c-0.7,0.6-1,1.1-1,1.4c0,0.2,0.1,0.4,0.3,0.5
				c0.4,0.2,1.3,0.3,2.9,0.3l2.3,0c1.4,0,2.3,0.2,2.8,0.7s0.8,1.1,0.8,2c0,1.3-0.5,2.3-1.6,3.1c-1.6,1.2-3.6,1.8-6,1.8
				c-1.7,0-3-0.3-3.8-0.9c-0.8-0.6-1.2-1.3-1.2-2c0-0.4,0.1-0.7,0.2-0.9c0.1-0.1,0.3-0.3,0.6-0.5l2.1-1.5c-0.6-0.1-1.1-0.4-1.4-0.7
				c-0.3-0.3-0.5-0.7-0.5-1.1c0-0.3,0.1-0.5,0.3-0.6c0.5-0.4,1.2-1,2.1-1.9c-0.8-0.4-1.3-0.9-1.7-1.5c-0.4-0.6-0.6-1.3-0.6-2.2
				c0-1.3,0.5-2.4,1.4-3.3c0.9-0.9,2.2-1.3,3.9-1.3c0.4,0,0.8,0,1.2,0.1c0.4,0.1,0.9,0.2,1.3,0.3c0.5,0,0.8,0,1.1,0
				C268.1,59.1,268.9,59,269.5,59z M260.8,71.3c-0.7,0.6-1.2,1.1-1.4,1.5s-0.4,0.7-0.4,1.1c0,0.5,0.2,0.9,0.7,1.2
				c0.7,0.5,1.6,0.7,2.8,0.7c1.4,0,2.5-0.3,3.4-0.8c0.9-0.5,1.3-1.2,1.3-2.1c0-0.5-0.2-0.9-0.5-1.2c-0.4-0.3-1-0.4-2-0.4l-0.6,0
				H260.8z M260.3,62.7c0,1.3,0.3,2.2,0.8,2.8s1.1,0.9,1.9,0.9c0.7,0,1.3-0.3,1.7-0.8s0.7-1.3,0.7-2.4c0-1.3-0.2-2.2-0.7-2.8
				c-0.5-0.6-1.1-0.9-1.9-0.9c-0.7,0-1.3,0.3-1.7,0.8C260.5,60.9,260.3,61.7,260.3,62.7z"/>
			<path class="st1" d="M280.4,68.4l0.5,0.8l-2.6,1.9c-0.4,0.2-0.7,0.4-1.1,0.5c-0.6,0.2-1.1,0.3-1.7,0.3c-1.4,0-2.7-0.6-3.7-1.7
				s-1.5-2.7-1.5-4.7c0-2.1,0.6-3.8,1.8-5.1s2.7-1.9,4.5-1.9c1.4,0,2.4,0.4,3.2,1.1c0.7,0.8,1.1,1.9,1.1,3.4c-0.4,0.2-0.7,0.5-1,0.8
				c-0.6,0-1,0-1.2,0c-2.3,0-4.4,0-6.1,0.1c0,2,0.3,3.5,1,4.5c0.7,1,1.6,1.5,2.7,1.5c0.6,0,1.2-0.1,1.8-0.3
				C278.7,69.4,279.5,69,280.4,68.4z M278.5,62.6c-0.1-0.9-0.2-1.5-0.6-2c-0.5-0.7-1.2-1-2-1c-0.7,0-1.4,0.2-1.9,0.7
				c-0.6,0.5-1,1.3-1.3,2.5c0.3,0,0.6,0,0.7,0C274.9,62.8,276.6,62.8,278.5,62.6z"/>
			<path class="st1" d="M298.4,52.5h0.8c1.2,3,2.6,6.5,4.4,10.4l3.1,6.7c0.1,0.2,0.3,0.4,0.5,0.5c0.1,0.1,0.8,0.3,1.9,0.6v0.8
				c-1.6-0.1-2.8-0.1-3.5-0.1c-0.8,0-2.1,0-4,0.1v-0.8c1.1-0.2,1.7-0.4,1.9-0.5c0.2-0.1,0.3-0.3,0.3-0.5c0-0.2-0.1-0.5-0.3-0.9
				l-1.3-3.2c-1.9,0-3.2,0-4.1,0l-3.6,0L293,69c-0.2,0.5-0.3,0.9-0.3,1c0,0.1,0.1,0.2,0.2,0.3c0.1,0.1,0.6,0.2,1.5,0.4
				c0.1,0,0.2,0.1,0.4,0.1v0.8c-1.5-0.1-2.6-0.1-3.2-0.1c-0.8,0-1.8,0-3,0.1v-0.8c0.8-0.2,1.3-0.4,1.6-0.6c0.2-0.2,0.4-0.4,0.7-0.8
				c0.5-0.9,1.8-3.7,3.8-8.4L298.4,52.5z M294.9,64.3c1.2,0,2.1,0.1,2.6,0.1c0.2,0,1.5,0,4-0.1l-3.3-7.9L294.9,64.3z"/>
			<path class="st1" d="M320.1,63.1l-0.9-0.1c0-1.1-0.3-1.9-0.8-2.5c-0.5-0.5-1.2-0.8-2.1-0.8c-0.7,0-1.3,0.2-1.9,0.5
				s-1.1,0.9-1.4,1.7c-0.3,0.8-0.5,1.7-0.5,2.7c0,1.6,0.4,2.9,1.2,3.8c0.8,0.9,1.7,1.4,2.8,1.4c1.1,0,2.4-0.4,4-1.3l0.5,0.8
				c-1.4,1-2.5,1.7-3.4,2.1c-0.4,0.2-1,0.3-1.6,0.3c-1.5,0-2.8-0.4-3.7-1.3c-1.3-1.2-1.9-2.8-1.9-4.8c0-2.1,0.7-3.8,2-5.2
				s2.9-2,4.9-2c1.3,0,2.6,0.3,3.8,1c-0.1,0.3-0.2,0.7-0.3,1.2C320.5,61.3,320.3,62.1,320.1,63.1z"/>
			<path class="st1" d="M324.1,62.6l-0.9-0.1c0.2-0.9,0.3-1.8,0.4-2.7c1.7-0.8,3.3-1.2,4.6-1.2c0.6,0,1.1,0.1,1.6,0.3
				c0.5,0.2,0.9,0.4,1.1,0.7c0.3,0.3,0.5,0.7,0.6,1.1s0.2,1.1,0.2,2l-0.1,5.4c0,0.7,0.1,1.2,0.3,1.5s0.4,0.3,0.6,0.3
				c0.3,0,0.8-0.2,1.5-0.7l0.4,0.5c-1.2,1.1-1.9,1.7-2,1.8c-0.2,0.1-0.6,0.2-0.9,0.2c-0.6,0-1-0.1-1.3-0.4c-0.3-0.3-0.5-0.8-0.6-1.4
				c-1.1,0.8-1.8,1.3-2.3,1.5c-0.5,0.2-1.1,0.3-1.7,0.3c-1,0-1.8-0.3-2.4-0.9c-0.6-0.6-0.9-1.4-0.9-2.3c0-0.6,0.1-1.1,0.3-1.5
				c0.2-0.5,0.5-0.9,0.9-1.2c0.3-0.3,0.8-0.6,1.6-0.9c1.7-0.8,3.2-1.5,4.5-2c0-1.2-0.3-2.1-0.6-2.5s-0.9-0.6-1.7-0.6
				c-0.7,0-1.3,0.2-1.8,0.7C325,61,324.5,61.7,324.1,62.6z M329.6,64.1c-2.3,1-3.7,1.8-4.2,2.2c-0.5,0.5-0.7,1-0.7,1.7
				s0.2,1.2,0.5,1.6s0.8,0.6,1.3,0.6c0.5,0,1-0.2,1.6-0.5c0.6-0.3,1-0.7,1.2-1.1c0.2-0.4,0.3-1.2,0.3-2.3V64.1z"/>
			<path class="st1" d="M342.5,54.6v-0.7c0.9-0.3,1.6-0.5,2.1-0.7c0.4-0.2,1.2-0.5,2.2-1.1l0.3,0.3c-0.2,2-0.3,5.8-0.3,11.4
				c0,3.1,0,4.8,0.1,5.1s0.3,0.5,0.8,0.5c0.3,0,0.7-0.1,1.4-0.2V70c-1.8,0.5-3.3,1.1-4.3,1.7l-0.3-0.3c0.1-0.7,0.2-1.3,0.2-2
				c-1.1,1-1.9,1.6-2.4,1.9c-0.5,0.2-1.1,0.4-1.8,0.4c-1.3,0-2.5-0.5-3.3-1.5c-0.9-1-1.3-2.4-1.3-4.3c0-1.3,0.2-2.4,0.6-3.3
				c0.3-0.7,0.8-1.4,1.4-2s1.3-1.1,2.1-1.5c0.8-0.4,1.5-0.6,2.3-0.6c0.4,0,0.7,0,1.2,0.1s0.9,0.2,1.4,0.4c0-0.4,0-0.7,0-0.8
				c0-2.1,0-3.2-0.1-3.4c-0.1-0.3-0.4-0.5-0.9-0.5c-0.2,0-0.4,0-0.8,0.1C342.8,54.6,342.7,54.6,342.5,54.6z M344.7,64.8
				c0-1.7,0-2.7-0.1-3c-0.1-0.5-0.5-1-1-1.3c-0.5-0.4-1.2-0.5-2-0.5c-1,0-1.9,0.4-2.6,1.2c-0.7,0.8-1.1,2.1-1.1,3.7
				c0,1.7,0.4,2.9,1.1,3.8c0.7,0.9,1.6,1.3,2.6,1.3c0.7,0,1.3-0.2,1.8-0.6s0.9-0.8,1.1-1.4C344.6,67.5,344.7,66.4,344.7,64.8z"/>
			<path class="st1" d="M360.4,68.4l0.5,0.8l-2.6,1.9c-0.4,0.2-0.7,0.4-1.1,0.5c-0.6,0.2-1.1,0.3-1.7,0.3c-1.4,0-2.7-0.6-3.7-1.7
				s-1.5-2.7-1.5-4.7c0-2.1,0.6-3.8,1.8-5.1s2.7-1.9,4.5-1.9c1.4,0,2.4,0.4,3.2,1.1c0.7,0.8,1.1,1.9,1.1,3.4c-0.4,0.2-0.7,0.5-1,0.8
				c-0.6,0-1,0-1.2,0c-2.3,0-4.4,0-6.1,0.1c0,2,0.3,3.5,1,4.5c0.7,1,1.6,1.5,2.7,1.5c0.6,0,1.2-0.1,1.8-0.3
				C358.7,69.4,359.5,69,360.4,68.4z M358.5,62.6c-0.1-0.9-0.2-1.5-0.6-2c-0.5-0.7-1.2-1-2-1c-0.7,0-1.4,0.2-1.9,0.7
				c-0.6,0.5-1,1.3-1.3,2.5c0.3,0,0.6,0,0.7,0C354.9,62.8,356.6,62.8,358.5,62.6z"/>
			<path class="st1" d="M362.2,61v-0.7c1.6-0.4,3-1,4.2-1.7l0.3,0.3c-0.1,0.7-0.2,1.5-0.2,2.3l1.9-1.8c0.2-0.2,0.5-0.4,0.9-0.5
				c0.5-0.2,1-0.3,1.5-0.3c1,0,1.8,0.3,2.4,0.8c0.5,0.4,0.8,1,1,1.8c1-1.1,1.7-1.8,2.1-2c0.7-0.4,1.4-0.5,2.2-0.5
				c0.7,0,1.3,0.1,1.8,0.4c0.5,0.3,0.9,0.6,1.2,1s0.4,0.8,0.5,1.2c0.1,0.4,0.1,1.1,0.1,2l0,3.6c0,1.8,0,2.9,0.1,3.2
				c0,0.2,0.1,0.3,0.3,0.4c0.1,0.1,0.7,0.2,1.8,0.5v0.7c-1.1-0.1-2-0.1-2.8-0.1c-0.7,0-1.9,0-3.5,0.1v-0.7c0.2-0.1,0.3-0.1,0.4-0.1
				c0.8-0.2,1.2-0.4,1.4-0.5c0.1-0.1,0.2-0.5,0.2-1.1c0.1-1.2,0.1-2.6,0.1-4.2c0-1.5-0.1-2.5-0.2-2.9c-0.1-0.5-0.4-0.8-0.8-1.1
				c-0.4-0.3-0.8-0.4-1.4-0.4c-0.8,0-1.4,0.2-2,0.7c-0.6,0.5-1,1-1.2,1.7c-0.1,0.4-0.2,1.6-0.2,3.6c0,2.3,0.1,3.5,0.2,3.7
				s0.8,0.4,1.9,0.6v0.7c-1.1-0.1-2.2-0.1-3.1-0.1c-1,0-2,0-3.2,0.1v-0.7l0.3-0.1c0.8-0.2,1.3-0.4,1.4-0.6c0.2-0.3,0.3-1.1,0.3-2.5
				l0.1-3.9c0-1.3-0.2-2.1-0.6-2.6c-0.4-0.5-1-0.7-1.7-0.7c-0.6,0-1.2,0.2-1.8,0.6c-0.6,0.4-1,0.9-1.3,1.5c-0.2,0.5-0.3,1.3-0.3,2.4
				l0,2.3c0,1.7,0.1,2.7,0.2,2.9c0.1,0.2,0.6,0.4,1.6,0.6c0.1,0,0.3,0.1,0.4,0.1v0.7c-1.1-0.1-2-0.1-2.8-0.1c-0.8,0-1.9,0-3.4,0.1
				v-0.7c1-0.2,1.6-0.4,1.8-0.5c0.2-0.2,0.2-0.9,0.2-2V68l0.1-3.9c0-1.7-0.1-2.6-0.2-2.9c-0.1-0.2-0.4-0.3-0.7-0.3
				C363.3,60.9,362.8,60.9,362.2,61z"/>
			<path class="st1" d="M383.8,59.7v-0.7c1.4,0.1,2.4,0.1,3,0.1c0.5,0,1.5,0,3-0.1v0.7c-0.8,0.1-1.2,0.3-1.4,0.4
				c-0.1,0.1-0.2,0.2-0.2,0.3c0,0.2,0.1,0.6,0.4,1.3c0.9,2.4,1.9,4.5,2.8,6.3l1.4-3.9c0.8-2.1,1.2-3.3,1.2-3.6c0-0.2,0-0.3-0.1-0.4
				c-0.1-0.1-0.3-0.2-0.6-0.3c-0.1,0-0.2-0.1-0.4-0.1v-0.7c1.1,0.1,1.9,0.1,2.4,0.1c0.6,0,1.3,0,2-0.1v0.7c-0.7,0.2-1.1,0.4-1.4,0.6
				c-0.2,0.3-0.7,1.2-1.4,3l-2.6,6.9c-0.7,2.1-1.3,3.5-1.7,4.2c-0.5,0.9-1.1,1.6-1.7,2s-1.3,0.7-1.8,0.7c-0.3,0-0.7-0.1-1.2-0.2
				c-0.1-0.5-0.2-0.9-0.3-1.2c-0.1-0.2-0.3-0.6-0.5-1.1l0.5-0.4c0.7,0.6,1.3,0.9,2,0.9c0.6,0,1.2-0.2,1.6-0.7
				c0.6-0.6,1.2-1.8,1.6-3.4l-2.6-5.9c-0.8-1.9-1.5-3.3-2.1-4.4c-0.2-0.3-0.4-0.6-0.5-0.7C384.9,60,384.5,59.8,383.8,59.7z"/>
		</g>
		<g>
			<path class="st1" d="M172.3,86.6V87c-0.2,0-0.3,0.1-0.4,0.1c-0.7,0.1-1.1,0.2-1.2,0.3s-0.2,0.3-0.2,0.7v0.3l0,3.1l0,4.6
				c0,0.4,0.1,0.6,0.2,0.7c0.1,0.1,0.5,0.2,1.1,0.3c0.1,0,0.3,0,0.5,0.1v0.5c-0.8-0.1-1.6-0.1-2.4-0.1c-0.8,0-1.7,0-2.6,0.1v-0.5
				c0.2,0,0.3-0.1,0.3-0.1c0.7-0.1,1.2-0.2,1.3-0.3c0.1-0.1,0.2-0.4,0.2-0.8l0-0.4l0-2.9c0-2.9,0-4.6,0-4.9c0-0.2-0.1-0.3-0.2-0.4
				c-0.1-0.1-0.5-0.2-1.2-0.3c-0.1,0-0.2-0.1-0.4-0.1v-0.5c1.1,0.1,2,0.1,2.7,0.1C170.6,86.7,171.4,86.6,172.3,86.6z"/>
			<path class="st1" d="M172.9,91.4V91c0.9-0.2,1.8-0.5,2.5-1l0.2,0.1c-0.1,0.4-0.1,0.9-0.1,1.4l1-1c0.2-0.1,0.4-0.3,0.6-0.3
				c0.3-0.1,0.6-0.2,1-0.2c0.7,0,1.3,0.2,1.7,0.7c0.3,0.3,0.4,0.9,0.4,1.7l0,1.9c0,1.3,0,2,0,2.2c0,0.2,0.1,0.3,0.1,0.3
				c0.1,0.1,0.3,0.1,0.7,0.2c0.1,0,0.2,0,0.4,0.1v0.4c-0.6-0.1-1.2-0.1-1.6-0.1c-0.4,0-1.1,0-2.1,0.1v-0.4c0.6-0.2,1-0.3,1-0.4
				c0.1-0.1,0.1-0.2,0.1-0.3c0.1-0.5,0.1-1.3,0.1-2.4c0-1.1,0-1.8-0.1-2.1c-0.1-0.3-0.2-0.6-0.5-0.8c-0.2-0.2-0.5-0.3-0.8-0.3
				c-0.3,0-0.7,0.1-1,0.3s-0.6,0.5-0.7,0.8c-0.2,0.3-0.2,0.8-0.2,1.5c0,1.9,0,2.9,0.1,3c0.1,0.2,0.4,0.3,0.9,0.4
				c0.1,0,0.2,0,0.3,0.1v0.4c-0.7-0.1-1.3-0.1-1.8-0.1c-0.5,0-1.1,0-2,0.1v-0.4c0.6-0.1,1-0.3,1.1-0.3c0.1,0,0.1-0.2,0.1-0.3
				c0.1-0.5,0.1-1.2,0.1-2c0-1.8,0-2.7-0.1-2.9c-0.1-0.2-0.2-0.3-0.5-0.3c-0.1,0-0.3,0-0.5,0.1C173.1,91.4,173,91.4,172.9,91.4z"/>
			<path class="st1" d="M187.9,92.6l-0.5,0c0-0.7-0.2-1.1-0.5-1.5c-0.3-0.3-0.7-0.5-1.3-0.5c-0.4,0-0.8,0.1-1.1,0.3s-0.6,0.6-0.8,1
				c-0.2,0.5-0.3,1-0.3,1.6c0,1,0.2,1.7,0.7,2.3s1,0.8,1.6,0.8c0.7,0,1.4-0.3,2.4-0.8l0.3,0.5c-0.8,0.6-1.5,1-2,1.3
				c-0.3,0.1-0.6,0.2-1,0.2c-0.9,0-1.6-0.3-2.2-0.8c-0.7-0.7-1.1-1.7-1.1-2.9c0-1.2,0.4-2.3,1.2-3.1c0.8-0.8,1.7-1.2,2.9-1.2
				c0.8,0,1.5,0.2,2.3,0.6c0,0.2-0.1,0.4-0.2,0.7C188.1,91.6,188,92,187.9,92.6z"/>
			<path class="st1" d="M188.9,87.6v-0.5c0.7-0.2,1.2-0.4,1.5-0.5c0.3-0.1,0.7-0.3,1-0.5l0.2,0.1c0,0.4-0.1,1-0.1,1.6
				c0,1.4-0.1,2.3-0.1,2.9c0,0.2,0,0.4,0,0.8l1-1c0.2-0.2,0.4-0.3,0.6-0.4c0.3-0.1,0.6-0.2,0.9-0.2c0.6,0,1.1,0.2,1.4,0.5
				c0.4,0.3,0.6,0.7,0.6,1.3c0,0.3,0,1.8,0,4.3c0,0.4,0,0.6,0.1,0.7c0.1,0.1,0.4,0.2,0.9,0.3c0.1,0,0.1,0,0.2,0.1v0.4
				c-0.9-0.1-1.6-0.1-2-0.1c-0.5,0-1.1,0-1.8,0.1v-0.4l0.9-0.3c0.1,0,0.1-0.1,0.2-0.1c0-0.1,0.1-0.2,0.1-0.3c0-0.1,0-0.4,0-0.8
				l0.1-2.2c0-0.7,0-1.2-0.1-1.5c-0.1-0.2-0.2-0.4-0.5-0.6c-0.2-0.2-0.5-0.2-0.8-0.2c-0.4,0-0.8,0.1-1.1,0.3s-0.6,0.5-0.7,0.9
				c-0.1,0.4-0.2,1-0.2,1.8c0,1.2,0,1.9,0.1,2.3c0,0.2,0.1,0.4,0.2,0.4s0.3,0.2,0.8,0.3c0.1,0,0.1,0,0.3,0.1v0.4
				c-0.8-0.1-1.4-0.1-1.9-0.1c-0.5,0-1.1,0-1.9,0.1v-0.4c0.1,0,0.2-0.1,0.2-0.1c0.5-0.1,0.7-0.2,0.8-0.3c0.1-0.1,0.1-0.3,0.1-0.7
				c0-0.7,0-1.9,0-3.8c0-2.9,0-4.4-0.1-4.6c-0.1-0.2-0.2-0.3-0.5-0.3C189.5,87.5,189.2,87.6,188.9,87.6z"/>
			<path class="st1" d="M197.9,91.4v-0.4c0.9-0.2,1.7-0.6,2.5-1l0.2,0.2c-0.1,1.1-0.2,2.7-0.2,4.7c0,0.9,0,1.5,0.1,1.8
				c0,0.1,0.1,0.3,0.2,0.3c0.1,0.1,0.3,0.2,0.8,0.3c0.1,0,0.1,0,0.3,0.1v0.4c-0.7-0.1-1.2-0.1-1.7-0.1c-0.3,0-1,0-2.1,0.1v-0.4
				c0.7-0.2,1.1-0.3,1.2-0.5c0.1-0.1,0.1-0.9,0.1-2.2l0-1.7v-0.3c0-0.6,0-0.9-0.1-1.1s-0.2-0.2-0.4-0.2
				C198.6,91.3,198.3,91.3,197.9,91.4z M199.9,86.2c0.2,0,0.4,0.1,0.6,0.2c0.2,0.2,0.2,0.4,0.2,0.6c0,0.2-0.1,0.4-0.2,0.6
				s-0.4,0.2-0.6,0.2c-0.2,0-0.4-0.1-0.6-0.2S199,87.2,199,87c0-0.2,0.1-0.4,0.2-0.6C199.4,86.2,199.6,86.2,199.9,86.2z"/>
			<path class="st1" d="M202.2,91.4V91c0.9-0.2,1.8-0.5,2.5-1l0.2,0.1c-0.1,0.4-0.1,0.9-0.1,1.4l1-1c0.2-0.1,0.4-0.3,0.6-0.3
				c0.3-0.1,0.6-0.2,1-0.2c0.7,0,1.3,0.2,1.7,0.7c0.3,0.3,0.4,0.9,0.4,1.7l0,1.9c0,1.3,0,2,0,2.2c0,0.2,0.1,0.3,0.1,0.3
				c0.1,0.1,0.3,0.1,0.7,0.2c0.1,0,0.2,0,0.4,0.1v0.4c-0.6-0.1-1.2-0.1-1.6-0.1c-0.4,0-1.1,0-2.1,0.1v-0.4c0.6-0.2,0.9-0.3,1-0.4
				s0.1-0.2,0.1-0.3c0.1-0.5,0.1-1.3,0.1-2.4c0-1.1,0-1.8-0.1-2.1c-0.1-0.3-0.2-0.6-0.5-0.8s-0.5-0.3-0.8-0.3c-0.3,0-0.7,0.1-1,0.3
				s-0.6,0.5-0.7,0.8c-0.2,0.3-0.2,0.8-0.2,1.5c0,1.9,0,2.9,0.1,3c0.1,0.2,0.4,0.3,0.9,0.4c0.1,0,0.2,0,0.3,0.1v0.4
				c-0.7-0.1-1.3-0.1-1.8-0.1c-0.5,0-1.1,0-2,0.1v-0.4c0.6-0.1,1-0.3,1.1-0.3c0.1,0,0.1-0.2,0.1-0.3c0.1-0.5,0.1-1.2,0.1-2
				c0-1.8,0-2.7-0.1-2.9c-0.1-0.2-0.2-0.3-0.5-0.3c-0.1,0-0.3,0-0.5,0.1C202.4,91.4,202.3,91.4,202.2,91.4z"/>
			<path class="st1" d="M218.5,90.2l0.1,0.1c-0.1,0.2-0.2,0.5-0.4,0.7c-0.4,0-0.8-0.1-1.2-0.1c0.3,0.5,0.5,1,0.5,1.6
				c0,0.7-0.3,1.4-0.8,1.9c-0.5,0.5-1.3,0.8-2.3,0.8c-0.3,0-0.5,0-0.8-0.1c-0.4,0.4-0.6,0.6-0.6,0.8c0,0.1,0.1,0.2,0.2,0.3
				c0.2,0.1,0.8,0.2,1.7,0.2l1.4,0c0.8,0,1.4,0.1,1.7,0.4c0.3,0.3,0.5,0.7,0.5,1.2c0,0.7-0.3,1.4-1,1.9c-0.9,0.7-2.1,1.1-3.6,1.1
				c-1,0-1.8-0.2-2.2-0.5c-0.5-0.4-0.7-0.8-0.7-1.2c0-0.2,0-0.4,0.1-0.5c0-0.1,0.2-0.2,0.4-0.3l1.2-0.9c-0.4-0.1-0.6-0.2-0.8-0.4
				c-0.2-0.2-0.3-0.4-0.3-0.7c0-0.2,0.1-0.3,0.2-0.4c0.3-0.2,0.7-0.6,1.3-1.1c-0.4-0.2-0.8-0.5-1-0.9c-0.2-0.4-0.3-0.8-0.3-1.3
				c0-0.8,0.3-1.5,0.8-2s1.3-0.8,2.3-0.8c0.2,0,0.5,0,0.7,0.1c0.2,0,0.5,0.1,0.8,0.2c0.3,0,0.5,0,0.7,0
				C217.7,90.3,218.2,90.2,218.5,90.2z M213.4,97.5c-0.4,0.4-0.7,0.6-0.9,0.9c-0.2,0.2-0.2,0.4-0.2,0.6c0,0.3,0.1,0.5,0.4,0.7
				c0.4,0.3,0.9,0.4,1.7,0.4c0.8,0,1.5-0.2,2-0.5s0.8-0.7,0.8-1.2c0-0.3-0.1-0.6-0.3-0.7c-0.2-0.2-0.6-0.3-1.2-0.3l-0.3,0H213.4z
				 M213.1,92.4c0,0.7,0.2,1.3,0.5,1.7c0.3,0.4,0.7,0.6,1.1,0.6c0.4,0,0.8-0.2,1-0.5c0.3-0.3,0.4-0.8,0.4-1.4c0-0.8-0.1-1.3-0.4-1.7
				c-0.3-0.4-0.7-0.5-1.1-0.5c-0.4,0-0.8,0.2-1,0.5C213.2,91.3,213.1,91.8,213.1,92.4z"/>
			<path class="st1" d="M229.1,92.6l-0.5,0c0-0.7-0.2-1.1-0.5-1.5s-0.7-0.5-1.3-0.5c-0.4,0-0.8,0.1-1.1,0.3c-0.4,0.2-0.6,0.6-0.8,1
				c-0.2,0.5-0.3,1-0.3,1.6c0,1,0.2,1.7,0.7,2.3c0.5,0.5,1,0.8,1.6,0.8c0.7,0,1.4-0.3,2.4-0.8l0.3,0.5c-0.8,0.6-1.5,1-2,1.3
				c-0.3,0.1-0.6,0.2-1,0.2c-0.9,0-1.6-0.3-2.2-0.8c-0.7-0.7-1.1-1.7-1.1-2.9c0-1.2,0.4-2.3,1.2-3.1c0.8-0.8,1.7-1.2,2.9-1.2
				c0.8,0,1.5,0.2,2.3,0.6c0,0.2-0.1,0.4-0.2,0.7C229.3,91.6,229.2,92,229.1,92.6z"/>
			<path class="st1" d="M230.1,87.6v-0.4c0.9-0.3,1.8-0.6,2.5-1l0.2,0.1c-0.1,1-0.2,2.8-0.2,5.5c0,2.7,0,4.2,0,4.5
				c0,0.3,0.1,0.5,0.2,0.6c0.1,0.1,0.5,0.2,1.1,0.4v0.4c-0.8-0.1-1.5-0.1-1.9-0.1c-0.5,0-1.1,0-1.9,0.1v-0.4
				c0.7-0.2,1.1-0.4,1.1-0.4s0.1-0.2,0.1-0.5c0-0.3,0-1.8,0-4.3l0-3.7v-0.1c0-0.3,0-0.5-0.1-0.6s-0.2-0.1-0.4-0.1
				C230.8,87.5,230.5,87.6,230.1,87.6z"/>
			<path class="st1" d="M234.8,94c0-1.3,0.4-2.3,1.1-3c0.7-0.7,1.7-1.1,2.8-1.1c1.1,0,2,0.3,2.6,1s1,1.6,1,2.8c0,1.3-0.4,2.3-1.1,3
				c-0.7,0.7-1.7,1.1-2.8,1.1c-1.1,0-2-0.3-2.6-1C235.1,96.2,234.8,95.2,234.8,94z M236.3,93.3c0,0.9,0.1,1.5,0.2,1.9
				c0.2,0.7,0.4,1.1,0.8,1.5c0.4,0.3,0.8,0.5,1.3,0.5c0.6,0,1.2-0.2,1.6-0.7c0.4-0.5,0.6-1.3,0.6-2.3c0-1.2-0.2-2.1-0.7-2.7
				s-1-0.9-1.6-0.9c-0.6,0-1.1,0.2-1.5,0.7C236.5,91.7,236.3,92.4,236.3,93.3z"/>
			<path class="st1" d="M248,92.1l-0.5,0c0-0.5-0.2-0.8-0.5-1.1s-0.6-0.4-1.1-0.4c-0.4,0-0.7,0.1-0.9,0.3c-0.2,0.2-0.3,0.4-0.3,0.7
				c0,0.2,0.1,0.4,0.3,0.6c0.2,0.3,0.8,0.6,1.5,1c0.8,0.4,1.3,0.8,1.6,1.1c0.3,0.3,0.4,0.7,0.4,1.2c0,0.6-0.3,1.2-0.8,1.6
				c-0.5,0.5-1.2,0.7-2.1,0.7c-0.6,0-1.3-0.1-2.1-0.4c0.1-0.7,0.1-1.4,0.1-2h0.5c0.2,0.6,0.4,1.1,0.7,1.3c0.3,0.3,0.7,0.4,1.1,0.4
				c0.4,0,0.7-0.1,0.9-0.3c0.2-0.2,0.3-0.5,0.3-0.8c0-0.3-0.1-0.6-0.3-0.9c-0.2-0.3-0.7-0.6-1.5-1c-0.8-0.4-1.3-0.7-1.5-1
				c-0.3-0.3-0.4-0.7-0.4-1.1c0-0.6,0.3-1.1,0.8-1.5c0.5-0.4,1.2-0.7,2-0.7c0.6,0,1.2,0.1,1.9,0.4C248.2,90.7,248.1,91.3,248,92.1z"
				/>
			<path class="st1" d="M255.6,95.8l0.3,0.5l-1.6,1.1c-0.2,0.1-0.4,0.3-0.7,0.3c-0.3,0.1-0.7,0.1-1,0.1c-0.8,0-1.6-0.3-2.2-1
				c-0.6-0.7-0.9-1.6-0.9-2.8c0-1.3,0.4-2.3,1.1-3c0.7-0.8,1.6-1.1,2.6-1.1c0.8,0,1.4,0.2,1.9,0.7c0.4,0.4,0.7,1.1,0.7,2
				c-0.2,0.1-0.4,0.3-0.6,0.5c-0.4,0-0.6,0-0.7,0c-1.4,0-2.6,0-3.6,0.1c0,1.2,0.2,2,0.6,2.6c0.4,0.6,0.9,0.9,1.6,0.9
				c0.3,0,0.7-0.1,1.1-0.2C254.6,96.4,255.1,96.1,255.6,95.8z M254.5,92.3c0-0.5-0.1-0.9-0.3-1.2c-0.3-0.4-0.7-0.6-1.2-0.6
				c-0.4,0-0.8,0.1-1.1,0.4c-0.3,0.3-0.6,0.8-0.7,1.5c0.2,0,0.3,0,0.4,0C252.4,92.5,253.4,92.4,254.5,92.3z"/>
			<path class="st1" d="M256.6,91.4V91c1-0.2,1.8-0.6,2.5-1l0.2,0.1c-0.1,0.5-0.1,1.1-0.1,1.7c0.6-0.8,1.1-1.2,1.3-1.4
				s0.5-0.3,0.9-0.3c0.2,0,0.5,0.1,0.7,0.2c-0.1,0.5-0.2,1.1-0.3,1.6h-0.4c0-0.3-0.1-0.4-0.2-0.5s-0.2-0.2-0.4-0.2
				c-0.2,0-0.4,0.1-0.7,0.3c-0.4,0.3-0.6,0.6-0.8,1c-0.2,0.4-0.2,0.9-0.2,1.6c0,1.2,0,2,0.1,2.4c0,0.2,0.1,0.3,0.2,0.4
				c0.1,0.1,0.5,0.2,1.1,0.3v0.4c-0.7-0.1-1.2-0.1-1.8-0.1c-0.4,0-1.2,0-2.2,0.1v-0.4c0.7-0.2,1.1-0.3,1.2-0.4
				c0.1-0.1,0.1-0.4,0.1-0.8l0-1.7c0-1.7,0-2.6,0-2.7c-0.1-0.2-0.2-0.3-0.4-0.3c-0.1,0-0.4,0-0.7,0.1
				C256.8,91.4,256.7,91.4,256.6,91.4z"/>
			<path class="st1" d="M268.4,88.3h0.5l-0.2,2l2.2,0l0.1,0.1c-0.1,0.2-0.3,0.4-0.4,0.7c-0.6,0-1.2,0-1.9-0.1l-0.1,4v0
				c0,0.6,0.1,1.1,0.2,1.3c0.1,0.3,0.4,0.4,0.7,0.4c0.3,0,0.6-0.1,1.1-0.4l0.2,0.4c-0.6,0.4-1,0.6-1.3,0.7s-0.6,0.2-0.8,0.2
				c-0.3,0-0.6-0.1-0.9-0.3s-0.4-0.4-0.5-0.7c0-0.2-0.1-0.7-0.1-1.6c0-1,0-2.3,0.1-4.1c-0.4,0-0.7,0-1.1,0.1v-0.4
				c0.4-0.2,0.8-0.5,1.1-0.8C267.7,89.5,268.1,89,268.4,88.3z"/>
			<path class="st1" d="M271.5,94c0-1.3,0.4-2.3,1.1-3c0.7-0.7,1.7-1.1,2.8-1.1c1.1,0,2,0.3,2.6,1s1,1.6,1,2.8c0,1.3-0.4,2.3-1.1,3
				c-0.7,0.7-1.7,1.1-2.8,1.1c-1.1,0-2-0.3-2.6-1C271.8,96.2,271.5,95.2,271.5,94z M273,93.3c0,0.9,0.1,1.5,0.2,1.9
				c0.2,0.7,0.4,1.1,0.8,1.5c0.4,0.3,0.8,0.5,1.3,0.5c0.6,0,1.2-0.2,1.6-0.7c0.4-0.5,0.6-1.3,0.6-2.3c0-1.2-0.2-2.1-0.7-2.7
				s-1-0.9-1.6-0.9c-0.6,0-1.1,0.2-1.5,0.7C273.2,91.7,273,92.4,273,93.3z"/>
			<path class="st1" d="M286,88.3h0.5l-0.2,2l2.2,0l0.1,0.1c-0.1,0.2-0.3,0.4-0.4,0.7c-0.6,0-1.2,0-1.9-0.1l-0.1,4v0
				c0,0.6,0.1,1.1,0.2,1.3c0.1,0.3,0.4,0.4,0.7,0.4c0.3,0,0.6-0.1,1.1-0.4l0.2,0.4c-0.6,0.4-1,0.6-1.3,0.7s-0.6,0.2-0.8,0.2
				c-0.3,0-0.6-0.1-0.9-0.3s-0.4-0.4-0.5-0.7c0-0.2-0.1-0.7-0.1-1.6c0-1,0-2.3,0.1-4.1c-0.4,0-0.7,0-1.1,0.1v-0.4
				c0.4-0.2,0.8-0.5,1.1-0.8C285.3,89.5,285.6,89,286,88.3z"/>
			<path class="st1" d="M288.7,87.6v-0.5c0.7-0.2,1.2-0.4,1.5-0.5c0.3-0.1,0.7-0.3,1-0.5l0.2,0.1c0,0.4-0.1,1-0.1,1.6
				c0,1.4-0.1,2.3-0.1,2.9c0,0.2,0,0.4,0,0.8l1-1c0.2-0.2,0.4-0.3,0.6-0.4c0.3-0.1,0.6-0.2,0.9-0.2c0.6,0,1.1,0.2,1.4,0.5
				c0.4,0.3,0.6,0.7,0.6,1.3c0,0.3,0,1.8,0,4.3c0,0.4,0,0.6,0.1,0.7c0.1,0.1,0.4,0.2,0.9,0.3c0.1,0,0.1,0,0.2,0.1v0.4
				c-0.9-0.1-1.6-0.1-2-0.1c-0.5,0-1.1,0-1.8,0.1v-0.4l0.9-0.3c0.1,0,0.1-0.1,0.2-0.1c0-0.1,0.1-0.2,0.1-0.3c0-0.1,0-0.4,0-0.8
				l0.1-2.2c0-0.7,0-1.2-0.1-1.5s-0.2-0.4-0.5-0.6c-0.2-0.2-0.5-0.2-0.8-0.2c-0.4,0-0.8,0.1-1.1,0.3s-0.6,0.5-0.7,0.9
				c-0.1,0.4-0.2,1-0.2,1.8c0,1.2,0,1.9,0.1,2.3c0,0.2,0.1,0.4,0.2,0.4s0.3,0.2,0.8,0.3c0.1,0,0.1,0,0.3,0.1v0.4
				c-0.8-0.1-1.4-0.1-1.9-0.1c-0.5,0-1.1,0-1.9,0.1v-0.4c0.1,0,0.2-0.1,0.3-0.1c0.5-0.1,0.7-0.2,0.8-0.3c0.1-0.1,0.1-0.3,0.1-0.7
				c0-0.7,0-1.9,0-3.8c0-2.9,0-4.4-0.1-4.6c-0.1-0.2-0.2-0.3-0.5-0.3C289.3,87.5,289,87.6,288.7,87.6z"/>
			<path class="st1" d="M303.9,95.8l0.3,0.5l-1.6,1.1c-0.2,0.1-0.4,0.3-0.7,0.3c-0.3,0.1-0.7,0.1-1,0.1c-0.8,0-1.6-0.3-2.2-1
				c-0.6-0.7-0.9-1.6-0.9-2.8c0-1.3,0.4-2.3,1.1-3c0.7-0.8,1.6-1.1,2.6-1.1c0.8,0,1.4,0.2,1.9,0.7c0.4,0.4,0.7,1.1,0.7,2
				c-0.2,0.1-0.4,0.3-0.6,0.5c-0.4,0-0.6,0-0.7,0c-1.4,0-2.6,0-3.6,0.1c0,1.2,0.2,2,0.6,2.6c0.4,0.6,0.9,0.9,1.6,0.9
				c0.3,0,0.7-0.1,1.1-0.2C302.9,96.4,303.4,96.1,303.9,95.8z M302.8,92.3c0-0.5-0.1-0.9-0.3-1.2c-0.3-0.4-0.7-0.6-1.2-0.6
				c-0.4,0-0.8,0.1-1.1,0.4c-0.3,0.3-0.6,0.8-0.7,1.5c0.2,0,0.3,0,0.4,0C300.7,92.5,301.7,92.4,302.8,92.3z"/>
			<path class="st1" d="M308.8,90.6v-0.4c0.7,0.1,1.3,0.1,1.7,0.1c0.4,0,1,0,1.8-0.1v0.4c-0.5,0.1-0.7,0.2-0.8,0.2
				c-0.1,0-0.1,0.1-0.1,0.3c0,0.1,0,0.1,0,0.2c0,0.2,0.2,0.8,0.6,1.7l1,2.8c0.1-0.2,0.6-1.4,1.6-3.8c-0.2-0.6-0.4-0.9-0.5-1
				s-0.4-0.2-0.9-0.3v-0.4c0.9,0.1,1.5,0.1,1.8,0.1c0.3,0,0.9,0,1.7-0.1v0.4c-0.4,0.1-0.7,0.1-0.8,0.3c-0.1,0.1-0.1,0.1-0.1,0.2
				c0,0.1,0,0.2,0,0.3c0.1,0.2,0.2,0.8,0.5,1.6c0.4,1.2,0.8,2,1,2.6c1-2.7,1.5-4.2,1.5-4.4c0-0.1,0-0.2-0.1-0.3s-0.3-0.1-0.6-0.2
				v-0.4c0.6,0.1,1,0.1,1.3,0.1c0.2,0,0.7,0,1.3-0.1v0.4c-0.3,0.1-0.6,0.2-0.7,0.3c-0.1,0.1-0.2,0.2-0.3,0.4
				c-0.1,0.2-0.4,0.9-0.9,2.2l-1.6,4.4h-0.5l-1.9-4.9l-2.1,4.9h-0.5l-1.4-3.6c-0.7-1.8-1.1-2.8-1.2-2.9s-0.2-0.3-0.3-0.4
				C309.5,90.8,309.2,90.7,308.8,90.6z"/>
			<path class="st1" d="M321.2,94c0-1.3,0.4-2.3,1.1-3c0.7-0.7,1.7-1.1,2.8-1.1c1.1,0,2,0.3,2.6,1s1,1.6,1,2.8c0,1.3-0.4,2.3-1.1,3
				c-0.7,0.7-1.7,1.1-2.8,1.1c-1.1,0-2-0.3-2.6-1C321.5,96.2,321.2,95.2,321.2,94z M322.7,93.3c0,0.9,0.1,1.5,0.2,1.9
				c0.2,0.7,0.4,1.1,0.8,1.5c0.4,0.3,0.8,0.5,1.3,0.5c0.6,0,1.2-0.2,1.6-0.7c0.4-0.5,0.6-1.3,0.6-2.3c0-1.2-0.2-2.1-0.7-2.7
				s-1-0.9-1.6-0.9c-0.6,0-1.1,0.2-1.5,0.7C322.9,91.7,322.7,92.4,322.7,93.3z"/>
			<path class="st1" d="M329.5,91.4V91c1-0.2,1.8-0.6,2.5-1l0.2,0.1c-0.1,0.5-0.1,1.1-0.1,1.7c0.6-0.8,1.1-1.2,1.3-1.4
				s0.5-0.3,0.9-0.3c0.2,0,0.5,0.1,0.7,0.2c-0.1,0.5-0.2,1.1-0.3,1.6h-0.4c0-0.3-0.1-0.4-0.2-0.5s-0.2-0.2-0.4-0.2
				c-0.2,0-0.4,0.1-0.7,0.3c-0.4,0.3-0.6,0.6-0.8,1c-0.2,0.4-0.2,0.9-0.2,1.6c0,1.2,0,2,0.1,2.4c0,0.2,0.1,0.3,0.2,0.4
				c0.1,0.1,0.5,0.2,1.1,0.3v0.4c-0.7-0.1-1.2-0.1-1.8-0.1c-0.4,0-1.2,0-2.2,0.1v-0.4c0.7-0.2,1.1-0.3,1.2-0.4
				c0.1-0.1,0.1-0.4,0.1-0.8l0-1.7c0-1.7,0-2.6,0-2.7c-0.1-0.2-0.2-0.3-0.4-0.3c-0.1,0-0.4,0-0.7,0.1
				C329.7,91.4,329.6,91.4,329.5,91.4z"/>
			<path class="st1" d="M335.2,87.6v-0.4c0.9-0.3,1.8-0.6,2.5-1l0.2,0.1c-0.1,1-0.2,2.8-0.2,5.5c0,2.7,0,4.2,0,4.5
				c0,0.3,0.1,0.5,0.2,0.6c0.1,0.1,0.5,0.2,1.1,0.4v0.4c-0.8-0.1-1.5-0.1-1.9-0.1c-0.5,0-1.1,0-1.9,0.1v-0.4
				c0.7-0.2,1.1-0.4,1.1-0.4s0.1-0.2,0.1-0.5c0-0.3,0-1.8,0-4.3l0-3.7v-0.1c0-0.3,0-0.5-0.1-0.6s-0.2-0.1-0.4-0.1
				C335.8,87.5,335.6,87.6,335.2,87.6z"/>
			<path class="st1" d="M343.9,87.6v-0.4c0.6-0.2,1-0.3,1.2-0.4s0.7-0.3,1.3-0.6l0.2,0.2c-0.1,1.2-0.2,3.5-0.2,6.7
				c0,1.8,0,2.8,0.1,3s0.2,0.3,0.5,0.3c0.2,0,0.4,0,0.8-0.1v0.4c-1.1,0.3-1.9,0.7-2.5,1l-0.2-0.1c0.1-0.4,0.1-0.8,0.1-1.2
				c-0.7,0.6-1.1,1-1.4,1.1s-0.7,0.2-1.1,0.2c-0.8,0-1.5-0.3-2-0.9c-0.5-0.6-0.8-1.4-0.8-2.5c0-0.8,0.1-1.4,0.4-1.9
				c0.2-0.4,0.5-0.8,0.8-1.2s0.8-0.7,1.2-0.9c0.5-0.2,0.9-0.3,1.4-0.3c0.2,0,0.4,0,0.7,0.1c0.3,0.1,0.5,0.1,0.8,0.2
				c0-0.3,0-0.4,0-0.5c0-1.2,0-1.9-0.1-2c-0.1-0.2-0.2-0.3-0.5-0.3c-0.1,0-0.3,0-0.5,0.1C344.1,87.6,344,87.6,343.9,87.6z
				 M345.2,93.7c0-1,0-1.6-0.1-1.8c-0.1-0.3-0.3-0.6-0.6-0.8c-0.3-0.2-0.7-0.3-1.2-0.3c-0.6,0-1.1,0.2-1.5,0.7
				c-0.4,0.5-0.6,1.2-0.6,2.2c0,1,0.2,1.7,0.6,2.2s0.9,0.8,1.5,0.8c0.4,0,0.7-0.1,1.1-0.3c0.3-0.2,0.5-0.5,0.6-0.8
				S345.2,94.6,345.2,93.7z"/>
		</g>
	</g>
</g>
</svg>
