<?xml version="1.0" encoding="UTF-8" standalone="no"?>
<!-- Generator: Adobe Illustrator 16.0.0, SVG Export Plug-In . SVG Version: 6.00 Build 0)  -->

<svg
   xmlns:dc="http://purl.org/dc/elements/1.1/"
   xmlns:cc="http://creativecommons.org/ns#"
   xmlns:rdf="http://www.w3.org/1999/02/22-rdf-syntax-ns#"
   xmlns:svg="http://www.w3.org/2000/svg"
   xmlns="http://www.w3.org/2000/svg"
   xmlns:sodipodi="http://sodipodi.sourceforge.net/DTD/sodipodi-0.dtd"
   xmlns:inkscape="http://www.inkscape.org/namespaces/inkscape"
   version="1.1"
   id="Livello_1"
   x="0px"
   y="0px"
   width="300px"
   height="38.602px"
   viewBox="0 0 300 38.602"
   enable-background="new 0 0 300 38.602"
   xml:space="preserve"
   inkscape:version="0.91 r13725"
   sodipodi:docname="logo-language-white.svg"><metadata
     id="metadata57"><rdf:RDF><cc:Work
         rdf:about=""><dc:format>image/svg+xml</dc:format><dc:type
           rdf:resource="http://purl.org/dc/dcmitype/StillImage" /><dc:title></dc:title></cc:Work></rdf:RDF></metadata><defs
     id="defs55" /><sodipodi:namedview
     pagecolor="#ffffff"
     bordercolor="#666666"
     borderopacity="1"
     objecttolerance="10"
     gridtolerance="10"
     guidetolerance="10"
     inkscape:pageopacity="0"
     inkscape:pageshadow="2"
     inkscape:window-width="1601"
     inkscape:window-height="711"
     id="namedview53"
     showgrid="false"
     inkscape:zoom="1.2466667"
     inkscape:cx="250.26738"
     inkscape:cy="19.301001"
     inkscape:window-x="0"
     inkscape:window-y="23"
     inkscape:window-maximized="0"
     inkscape:current-layer="Livello_1" /><g
     id="g3"
     style="fill:#ffffff;fill-opacity:1;stroke:#ffffff;stroke-opacity:1"><path
       fill="#63BBC3"
       stroke="#64BBC3"
       stroke-width="0.75"
       stroke-miterlimit="10"
       d="M54.905,10.284h2.081v18.714h7.96v1.997   H54.905V10.284z"
       id="path5"
       style="fill:#ffffff;fill-opacity:1;stroke:#ffffff;stroke-opacity:1" /><path
       fill="#63BBC3"
       stroke="#64BBC3"
       stroke-width="0.75"
       stroke-miterlimit="10"
       d="M78.65,10.284l9.65,20.711h-2.207   l-3.254-6.829h-8.938l-3.226,6.829h-2.318l9.79-20.711H78.65z M78.399,14.67l-3.575,7.513h7.094L78.399,14.67z"
       id="path7"
       style="fill:#ffffff;fill-opacity:1;stroke:#ffffff;stroke-opacity:1" /><path
       fill="#63BBC3"
       stroke="#64BBC3"
       stroke-width="0.75"
       stroke-miterlimit="10"
       d="M93.485,31.051v-20.71h0.447l13.77,15.851   V10.341h2.039v20.71h-0.475l-13.63-15.655v15.655H93.485z"
       id="path9"
       style="fill:#ffffff;fill-opacity:1;stroke:#ffffff;stroke-opacity:1" /><path
       fill="#63BBC3"
       stroke="#64BBC3"
       stroke-width="0.75"
       stroke-miterlimit="10"
       d="M136.713,13.929l-1.606,1.522   c-1.155-1.136-2.418-1.997-3.792-2.584c-1.373-0.587-2.716-0.88-4.029-0.88c-1.62,0-3.163,0.4-4.629,1.201s-2.604,1.881-3.415,3.24   s-1.215,2.653-1.215,3.882c0,1.564,0.419,3.047,1.257,4.448s1.995,2.5,3.47,3.296s3.088,1.193,4.839,1.193   c2.123,0,3.922-0.6,5.398-1.801c1.475-1.201,2.353-2.756,2.632-4.665h-6.605v-1.997h8.91c-0.019,3.203-0.966,5.745-2.842,7.625   c-1.876,1.881-4.397,2.821-7.563,2.821c-3.817,0-6.843-1.303-9.077-3.91c-1.723-2.011-2.584-4.334-2.584-6.969   c0-1.964,0.491-3.715,1.474-5.251c0.982-1.536,2.334-2.783,4.057-3.743c1.723-0.958,3.668-1.438,5.838-1.438   c1.75,0,3.398,0.318,4.943,0.956S135.232,12.533,136.713,13.929z"
       id="path11"
       style="fill:#ffffff;fill-opacity:1;stroke:#ffffff;stroke-opacity:1" /><path
       fill="#63BBC3"
       stroke="#64BBC3"
       stroke-width="0.75"
       stroke-miterlimit="10"
       d="M143.882,10.005h2.067v12.499   c0,1.48,0.032,2.407,0.098,2.779c0.102,0.819,0.34,1.501,0.712,2.046c0.373,0.545,0.947,1.001,1.725,1.369   c0.777,0.367,1.562,0.551,2.353,0.551c0.68,0.178,1.615,0.117,2.808-0.181c1.191-0.298,1.997-0.743,2.416-1.334   s0.726-1.259,0.921-2.004c0.149-0.521,0.225-1.597,0.225-3.227V10.005h2.066v12.499c0,1.854-0.182,3.35-0.545,4.49   s-1.087,2.132-2.172,2.975c-1.084,0.843-2.953,1.264-5.606,1.264c-1.676,0-3.107-0.4-4.294-1.201   c-1.187-0.8-1.981-1.853-2.381-3.156c-0.261-0.818-0.391-2.276-0.391-4.371V10.005z"
       id="path13"
       style="fill:#ffffff;fill-opacity:1;stroke:#ffffff;stroke-opacity:1" /><path
       fill="#63BBC3"
       stroke="#64BBC3"
       stroke-width="0.75"
       stroke-miterlimit="10"
       d="M174.498,10.284l9.65,20.711h-2.207   l-3.254-6.829h-8.938l-3.227,6.829h-2.318l9.79-20.711H174.498z M174.246,14.67l-3.574,7.513h7.094L174.246,14.67z"
       id="path15"
       style="fill:#ffffff;fill-opacity:1;stroke:#ffffff;stroke-opacity:1" /><path
       fill="#63BBC3"
       stroke="#64BBC3"
       stroke-width="0.75"
       stroke-miterlimit="10"
       d="M209.305,13.929l-1.607,1.522   c-1.154-1.136-2.418-1.997-3.791-2.584s-2.716-0.88-4.029-0.88c-1.619,0-3.162,0.4-4.629,1.201s-2.604,1.881-3.414,3.24   c-0.811,1.359-1.216,2.653-1.216,3.882c0,1.564,0.419,3.047,1.257,4.448s1.995,2.5,3.471,3.296s3.088,1.193,4.839,1.193   c2.123,0,3.923-0.6,5.397-1.801c1.477-1.201,2.354-2.756,2.633-4.665h-6.605v-1.997h8.91c-0.02,3.203-0.967,5.745-2.842,7.625   c-1.877,1.881-4.398,2.821-7.563,2.821c-3.818,0-6.844-1.303-9.078-3.91c-1.723-2.011-2.584-4.334-2.584-6.969   c0-1.964,0.492-3.715,1.475-5.251c0.981-1.536,2.334-2.783,4.057-3.743c1.723-0.958,3.668-1.438,5.838-1.438   c1.75,0,3.398,0.318,4.943,0.956S207.824,12.533,209.305,13.929z"
       id="path17"
       style="fill:#ffffff;fill-opacity:1;stroke:#ffffff;stroke-opacity:1" /><path
       fill="#63BBC3"
       stroke="#64BBC3"
       stroke-width="0.75"
       stroke-miterlimit="10"
       d="M216.416,10.341h11.871v2.038h-9.803v6.48   h5.977v2.011h-5.977v8.128h9.719v2.053h-11.787V10.341z"
       id="path19"
       style="fill:#ffffff;fill-opacity:1;stroke:#ffffff;stroke-opacity:1" /></g><g
     id="g21"
     style="fill:#ffffff;fill-opacity:1;stroke:#ffffff;stroke-opacity:1"><path
       fill="#DA8F28"
       stroke="#D98F28"
       stroke-width="0.75"
       stroke-miterlimit="10"
       d="M243.131,10.521h2.081v18.714h7.96v1.997   h-10.041V10.521z"
       id="path23"
       style="fill:#ffffff;fill-opacity:1;stroke:#ffffff;stroke-opacity:1" /><path
       fill="#DA8F28"
       stroke="#D98F28"
       stroke-width="0.75"
       stroke-miterlimit="10"
       d="M266.876,10.521l9.65,20.711h-2.207   l-3.254-6.829h-8.938l-3.227,6.829h-2.318l9.791-20.711H266.876z M266.625,14.907l-3.575,7.513h7.094L266.625,14.907z"
       id="path25"
       style="fill:#ffffff;fill-opacity:1;stroke:#ffffff;stroke-opacity:1" /><path
       fill="#DA8F28"
       stroke="#D98F28"
       stroke-width="0.75"
       stroke-miterlimit="10"
       d="M281.335,10.521h6.577   c1.639,0,2.899,0.196,3.784,0.587s1.58,0.991,2.088,1.802c0.508,0.81,0.762,1.703,0.762,2.681c0,0.922-0.227,1.76-0.678,2.515   c-0.451,0.754-1.115,1.363-1.99,1.829c1.09,0.372,1.923,0.803,2.5,1.292c0.577,0.488,1.029,1.082,1.355,1.78   c0.325,0.698,0.488,1.457,0.488,2.276c0,1.667-0.609,3.075-1.83,4.225c-1.219,1.15-2.849,1.725-4.887,1.725h-8.17V10.521z    M283.359,12.547v6.634h3.673c1.434,0,2.488-0.135,3.163-0.405c0.675-0.27,1.21-0.691,1.606-1.264   c0.396-0.573,0.594-1.213,0.594-1.921c0-0.949-0.331-1.694-0.992-2.234c-0.661-0.539-1.713-0.81-3.156-0.81H283.359z    M283.359,21.26v7.946h5.056c1.508,0,2.613-0.148,3.316-0.446s1.269-0.759,1.697-1.383c0.428-0.623,0.643-1.308,0.643-2.053   c0-0.912-0.301-1.713-0.901-2.402c-0.601-0.688-1.427-1.159-2.479-1.41c-0.708-0.168-1.933-0.252-3.673-0.252H283.359z"
       id="path27"
       style="fill:#ffffff;fill-opacity:1;stroke:#ffffff;stroke-opacity:1" /></g><g
     id="g45"
     style="fill:#ffffff;fill-opacity:1"><path
       fill="#63BBC4"
       d="M31.546,0.013H7H0v7v24.575v7h7h24.546h7v-7V7.013v-7H31.546z M31.546,31.588H15.959l-4.869,5.448   l-1.124-5.448H7V7.013h24.546V31.588z"
       id="path47"
       style="fill:#ffffff;fill-opacity:1" /><line
       fill="#63BBC4"
       x1="15.959"
       y1="31.588"
       x2="15.965"
       y2="31.582"
       id="line49"
       style="fill:#ffffff;fill-opacity:1" /><line
       fill="#63BBC4"
       x1="9.965"
       y1="31.582"
       x2="9.967"
       y2="31.588"
       id="line51"
       style="fill:#ffffff;fill-opacity:1" /></g></svg>